<?xml version="1.0" encoding="utf-8"?>
<!-- Generator: Adobe Illustrator 20.0.0, SVG Export Plug-In . SVG Version: 6.00 Build 0)  -->
<svg version="1.1" id="Layer_1" xmlns="http://www.w3.org/2000/svg" xmlns:xlink="http://www.w3.org/1999/xlink" x="0px" y="0px"
	 viewBox="0 0 500 500" style="enable-background:new 0 0 500 500;" xml:space="preserve">
<style type="text/css">
	.st0{fill:none;stroke:#FFFFFF;stroke-width:2.88;stroke-miterlimit:10;}
	.st1{fill:#FFFFFF;}
	.st2{fill:none;stroke:#FFFFFF;stroke-width:2.88;stroke-linecap:round;stroke-miterlimit:10;}
	.st3{opacity:0.25;fill:#FFFFFF;}
	.st4{fill:#FFFFFF;stroke:#FFFFFF;stroke-width:0.96;stroke-miterlimit:10;}
	.st5{fill:none;stroke:#FFFFFF;stroke-width:1.92;stroke-miterlimit:10;}
</style>
<g>
	<path class="st0" d="M311.2,327"/>
	<path class="st0" d="M219.5,326.9"/>
	<g>
		<polygon class="st0" points="310.7,385.9 233.8,385.9 233.8,305.2 233.8,262 310.7,262 		"/>
		<line class="st0" x1="310.4" y1="305.5" x2="233.8" y2="305.5"/>
		<line class="st0" x1="234.1" y1="345.8" x2="310.4" y2="345.8"/>
		<rect x="243.8" y="280.7" class="st1" width="23.6" height="8.1"/>
		<rect x="244" y="319.6" class="st1" width="23.6" height="8.1"/>
		<rect x="243.6" y="359.4" class="st1" width="23.6" height="8.1"/>
		<circle class="st1" cx="295.5" cy="284.6" r="5.9"/>
		<circle class="st1" cx="294.8" cy="323.7" r="5.9"/>
		<circle class="st1" cx="295.1" cy="362.8" r="5.9"/>
		<path class="st1" d="M380.2,198.3L380.2,198.3l0-0.7c-2.9-13.3-7.7-25.8-14.3-37.3c-6.5-11.3-14.6-21.3-24-29.7
			c-9.5-8.5-20.1-15.1-31.6-19.6c-11.8-4.7-24.3-7.1-36.9-7.1c-12.7,0-25.1,2.4-36.9,7.1c-11.4,4.6-22.1,11.2-31.6,19.6
			c-9.4,8.4-17.5,18.4-24,29.7c-6.6,11.5-11.4,24.1-14.3,37.3l-0.1,0.6l66.6,64.6l1.6-1.6L169,197.5c0.1-0.2,0.2-0.5,0.3-0.7
			c2.8-6.3,5.7-12.8,10.8-17.1c5.1-4.2,11.8-6.9,19-7.4c4.3-0.3,8.7,0,12.8,1c4.3,1,8.2,2.8,11.7,5.1c3.5,2.4,6.6,5.5,9,9
			c1.9,2.9,3.3,6,4.1,9.2l-0.1,0l0.5,1.9c0,0.2,0.1,0.4,0.1,0.6l0.1,0l16.3,62.6l2.1-0.5l-16.3-62.4l0.1,0c0-0.2-0.1-0.4-0.1-0.6
			c2.8-6.3,5.3-11.6,8.8-16c4-5.2,8.8-8.5,15-10.3c4.5-1.4,9.3-1.7,14.1-0.9c4.6,0.7,9.1,2.4,13.1,4.9c3.9,2.4,7.3,5.7,9.9,9.3
			c2.6,3.8,4.3,7.9,5.1,12.4l-16.7,63.9l2.1,0.5c0-0.1,0-0.1,0-0.2c0-0.2,0.1-0.4,0.1-0.5c0.1-0.3,0.2-0.6,0.2-0.9
			c0.1-0.4,0.2-0.8,0.3-1.2c0.1-0.5,0.3-1,0.4-1.5c0.1-0.6,0.3-1.1,0.4-1.7c0.2-0.6,0.3-1.3,0.5-1.9c0.2-0.7,0.4-1.4,0.6-2.2
			c0.2-0.8,0.4-1.6,0.6-2.3c0.2-0.8,0.4-1.7,0.7-2.5c0.2-0.9,0.5-1.8,0.7-2.7c0.2-0.9,0.5-1.8,0.7-2.8c0.2-1,0.5-1.9,0.7-2.9
			c0.3-1,0.5-2,0.8-2.9c0.3-1,0.5-2,0.8-3c0.3-1,0.5-2,0.8-3c0.3-1,0.5-2,0.8-3c0.3-1,0.5-2,0.8-3c0.3-1,0.5-2,0.8-2.9
			c0.2-1,0.5-1.9,0.7-2.9c0.2-0.9,0.5-1.9,0.7-2.8c0.2-0.9,0.5-1.8,0.7-2.7c0.2-0.8,0.4-1.7,0.7-2.5c0.2-0.8,0.4-1.6,0.6-2.4
			c0.2-0.7,0.4-1.4,0.6-2.2c0.2-0.7,0.3-1.3,0.5-2c0.1-0.6,0.3-1.1,0.4-1.7c0.1-0.5,0.3-1,0.4-1.5c0.1-0.4,0.2-0.8,0.3-1.2
			c0.1-0.3,0.2-0.6,0.2-0.9c0.2-0.9,0.4-1.7,0.5-2.6c-0.1,0.3-0.2,0.6-0.4,0.9c0.4-0.8,0.8-1.6,1.2-2.4c0.4-0.8,0.8-1.5,1.2-2.3
			c0.8-1.5,1.7-2.9,2.7-4.3c0.9-1.4,1.9-2.7,3-4c1-1.2,2.1-2.4,3.3-3.5c1.1-1.1,2.2-2.1,3.4-3c3.4-2.7,7-4.7,10.7-5.9
			c4-1.4,8.3-1.9,12.6-1.6c7.5,0.5,15,3.8,21,9.2c5.7,5.1,9.5,11.8,10.9,18.8l-67.9,63.7l1.6,1.7l68.4-64.2L380.2,198.3L380.2,198.3
			C380.2,198.3,380.2,198.3,380.2,198.3z M368.3,177c-6.4-5.8-14.3-9.2-22.4-9.8c-4.6-0.3-9.2,0.3-13.5,1.7c-4,1.4-7.8,3.5-11.4,6.3
			c-5.6,4.5-10.5,10.6-14.3,18c-1-3.3-2.5-6.5-4.6-9.4c-2.7-3.9-6.4-7.4-10.5-10c-4.2-2.7-9.1-4.5-13.9-5.2
			c-5.2-0.8-10.2-0.5-15.1,1c-3.5,1.1-6.6,2.5-9.4,4.5c-2.5,1.8-4.7,4-6.8,6.6c-3.1,4-5.5,8.6-7.9,13.8c-0.9-2.9-2.3-5.8-4-8.5
			c-2.5-3.8-5.8-7.1-9.6-9.7c-3.7-2.5-7.9-4.3-12.4-5.4c-4.4-1.1-9-1.4-13.5-1.1c-7.6,0.6-14.8,3.4-20.3,8c-2.9,2.4-5.1,5.3-6.9,8.5
			c2.8-8.8,6.4-17.2,11-25.1c6.4-11.1,14.3-20.9,23.6-29.1c9.3-8.3,19.7-14.8,30.9-19.2c11.6-4.6,23.7-6.9,36.1-6.9
			s24.5,2.3,36.1,6.9c11.2,4.5,21.6,10.9,30.9,19.2c9.2,8.2,17.2,18,23.6,29.1c3.9,6.9,7.2,14.1,9.8,21.6
			C372.2,180.9,370.4,178.8,368.3,177z"/>
		<path class="st0" d="M307,195.9c0-1.1,0.3-4.4,0.3-5.5c0-47.2-15.5-85.4-34.7-85.4s-34.7,38.3-34.7,85.4c0,1.1,0.2,4.3,0.2,5.4"/>
		<path class="st2" d="M225,321.9h-60.8c-15,0-27.2-12.2-27.2-27.2c0-15,12.2-27.2,27.2-27.2c3.4,0,3.8-2.1,5.2-4.7
			c1.9-3.6,4.5-6.9,7.5-9.6c6.4-5.7,14.7-8.9,23.3-8.9"/>
		<path class="st2" d="M318.6,376.9h37.1c15,0,27.2-12.2,27.2-27.2c0-15-12.2-27.2-27.2-27.2c-3.4,0-3.8-2.1-5.2-4.7
			c-1.9-3.6-4.5-6.9-7.5-9.6c-6.4-5.7-14.7-8.9-23.3-8.9"/>
		<path class="st0" d="M209.7,349.1h-5.1c-0.5,0-0.8-0.4-0.8-0.9c0,0,0,0,0,0c0-8.6-7-15.6-15.6-15.6c-8.6,0-15.6,7-15.6,15.6
			c0,0.6,0,1.1,0.1,1.7c0,0.3-0.1,0.6-0.4,0.8c-3.1,1.9-5.2,5.3-5.2,9.2l0,0c0,5.9,4.9,10.8,10.8,10.8h31.7
			c5.9,0,10.8-4.9,10.8-10.8l0,0C220.5,354,215.7,349.1,209.7,349.1z"/>
		<path class="st0" d="M344.5,260.9h5.1c0.5,0,0.8-0.4,0.8-0.9c0,0,0,0,0,0c0-8.6,7-15.6,15.6-15.6c8.6,0,15.6,7,15.6,15.6
			c0,0.6,0,1.1-0.1,1.7c0,0.3,0.1,0.6,0.4,0.8c3.1,1.9,5.2,5.3,5.2,9.2l0,0c0,5.9-4.9,10.8-10.8,10.8h-31.7
			c-5.9,0-10.8-4.9-10.8-10.8l0,0C333.7,265.7,338.6,260.9,344.5,260.9z"/>
		<path class="st3" d="M237.1,193.9l4.2-41.3l5.8-19.2l4.8-10.8l5.2-8.2l9.2-9.1c0,0-4.2,0.5-4.9,0.5s-13.6,3-13.6,3l-8,1.9
			l-6.5,2.8l-15.8,8.2l-15.3,12.7l-14.7,16.8l-10.6,19.4l-6,13.8c0,0-4.1,14.3-2.8,12.5c1.3-1.7,5-10.4,5-10.4l6.5-8.2l9.5-5.2
			l9.1-1.9l7.8-0.2l9.7,2.2l11.4,6l4.1,5l4.1,5.4l2.8,3.2L237.1,193.9z"/>
	</g>
	<g>
		<polygon class="st0" points="143.1,313.9 108.3,330.2 91.2,293.6 82.1,274 116.9,257.8 		"/>
		<line class="st0" x1="126" y1="277.6" x2="91.3" y2="293.7"/>
		<line class="st0" x1="99.9" y1="312" x2="134.5" y2="295.8"/>
		
			<rect x="90.9" y="277.7" transform="matrix(0.9063 -0.4226 0.4226 0.9063 -109.1451 67.1292)" class="st1" width="11.8" height="4"/>
		
			<rect x="99.2" y="295.3" transform="matrix(0.9063 -0.4226 0.4226 0.9063 -115.8023 72.2767)" class="st1" width="11.8" height="4"/>
		
			<rect x="107.4" y="313.4" transform="matrix(0.9063 -0.4226 0.4226 0.9063 -122.6838 77.4392)" class="st1" width="11.8" height="4"/>
		<ellipse transform="matrix(0.9063 -0.4226 0.4226 0.9063 -103.8647 73.9595)" class="st1" cx="114.9" cy="271.2" rx="3" ry="3"/>
		<ellipse transform="matrix(0.9063 -0.4226 0.4226 0.9063 -110.6605 78.9776)" class="st1" cx="122.8" cy="289.1" rx="3" ry="3"/>
		<ellipse transform="matrix(0.9063 -0.4226 0.4226 0.9063 -117.3482 84.1879)" class="st1" cx="131.2" cy="306.8" rx="3" ry="3"/>
		<path class="st4" d="M135,214.2L135,214.2l-0.2-0.3c-4.1-5.4-8.9-10.1-14.4-13.9c-5.3-3.8-11.1-6.6-17.2-8.4
			c-6.1-1.8-12.3-2.6-18.5-2.2c-6.4,0.4-12.5,1.9-18.2,4.6c-5.7,2.7-10.9,6.4-15.2,11c-4.2,4.5-7.6,9.7-10.2,15.6
			c-2.5,5.8-4,12-4.6,18.5c-0.6,6.6-0.1,13.3,1.4,19.9l0.1,0.3l43.8,15.2l0.4-1.1l-43.2-15c0-0.1,0-0.3,0-0.4c-0.1-3.4-0.1-7,1.3-10
			c1.4-3,3.9-5.6,7-7.4c1.9-1.1,3.9-1.8,6-2.3c2.2-0.4,4.3-0.5,6.4-0.2c2.1,0.3,4.2,1.1,6,2.2c1.5,0.9,2.8,2,3.8,3.3l0,0l0.6,0.8
			c0.1,0.1,0.1,0.2,0.2,0.2l0,0l20.6,24.9l0.8-0.7l-20.6-24.8l0,0c-0.1-0.1-0.1-0.2-0.2-0.2c-0.1-3.5,0-6.4,0.6-9.1
			c0.7-3.2,2.2-5.7,4.6-7.9c1.8-1.6,3.9-2.7,6.2-3.4c2.2-0.6,4.6-0.8,7-0.5c2.3,0.3,4.5,1,6.4,2.2c2,1.2,3.6,2.7,4.9,4.5l5.9,32.5
			l1.1-0.2c0,0,0-0.1,0-0.1c0-0.1,0-0.2,0-0.3c0-0.1-0.1-0.3-0.1-0.4c0-0.2-0.1-0.4-0.1-0.6c0-0.2-0.1-0.5-0.1-0.7
			c-0.1-0.3-0.1-0.6-0.2-0.9c-0.1-0.3-0.1-0.7-0.2-1c-0.1-0.4-0.1-0.7-0.2-1.1c-0.1-0.4-0.1-0.8-0.2-1.2c-0.1-0.4-0.2-0.9-0.2-1.3
			c-0.1-0.4-0.2-0.9-0.2-1.3c-0.1-0.5-0.2-0.9-0.3-1.4c-0.1-0.5-0.2-1-0.3-1.5c-0.1-0.5-0.2-1-0.3-1.5c-0.1-0.5-0.2-1-0.3-1.5
			c-0.1-0.5-0.2-1-0.3-1.5c-0.1-0.5-0.2-1-0.3-1.5c-0.1-0.5-0.2-1-0.3-1.5c-0.1-0.5-0.2-1-0.3-1.5c-0.1-0.5-0.2-1-0.3-1.5
			c-0.1-0.5-0.2-0.9-0.3-1.4c-0.1-0.5-0.2-0.9-0.2-1.4c-0.1-0.4-0.2-0.9-0.2-1.3c-0.1-0.4-0.1-0.8-0.2-1.2c-0.1-0.4-0.1-0.7-0.2-1.1
			c-0.1-0.3-0.1-0.7-0.2-1c-0.1-0.3-0.1-0.6-0.2-0.9c0-0.2-0.1-0.5-0.1-0.7c0-0.2-0.1-0.4-0.1-0.6c0-0.1-0.1-0.3-0.1-0.4
			c-0.1-0.4-0.2-0.9-0.3-1.3c0,0.2,0,0.3,0,0.5c0-0.4,0-0.9,0-1.3c0-0.4,0-0.9,0.1-1.3c0.1-0.9,0.2-1.7,0.3-2.5
			c0.1-0.8,0.3-1.6,0.5-2.4c0.2-0.8,0.4-1.5,0.7-2.3c0.3-0.7,0.6-1.4,0.9-2.1c1-1.9,2.2-3.6,3.6-4.9c1.5-1.5,3.4-2.6,5.4-3.4
			c3.5-1.4,7.6-1.5,11.4-0.3c3.7,1.1,6.8,3.3,8.9,6.2l-17.3,43.2l1.1,0.4l17.4-43.5L135,214.2L135,214.2
			C135,214.2,135,214.2,135,214.2z M125.1,207.1c-4.1-1.3-8.4-1.2-12.2,0.3c-2.2,0.8-4.1,2.1-5.8,3.6c-1.5,1.5-2.8,3.2-3.8,5.3
			c-1.6,3.2-2.5,7-2.7,11.2c-1.2-1.3-2.5-2.4-4-3.3c-2.1-1.2-4.4-2-6.9-2.3c-2.5-0.3-5-0.1-7.4,0.6c-2.5,0.7-4.7,2-6.6,3.7
			c-1.4,1.2-2.4,2.5-3.3,4c-0.8,1.3-1.3,2.8-1.7,4.4c-0.6,2.5-0.7,5.1-0.6,7.9c-1-1.1-2.3-2.2-3.6-3c-1.9-1.2-4.2-2-6.4-2.4
			c-2.2-0.3-4.5-0.3-6.8,0.2c-2.2,0.4-4.4,1.2-6.4,2.4c-3.3,1.9-6,4.7-7.5,7.9c-0.8,1.7-1.2,3.5-1.3,5.3c-0.6-4.6-0.7-9.2-0.3-13.7
			c0.5-6.4,2.1-12.5,4.5-18.2c2.5-5.7,5.8-10.9,9.9-15.2c4.3-4.5,9.3-8.2,14.9-10.8c5.6-2.6,11.6-4.1,17.8-4.5
			c6-0.3,12.1,0.4,18.1,2.2c5.9,1.8,11.6,4.5,16.8,8.2c3.2,2.3,6.3,4.9,9,7.7C127.7,208,126.4,207.5,125.1,207.1z"/>
		<path class="st0" d="M101.3,228.6c-0.2-0.5-0.8-2.1-1-2.6c-10-21.4-25.1-35.4-33.8-31.4c-8.7,4-7.6,24.7,2.3,46
			c0.2,0.5,1,1.9,1.2,2.4"/>
		<path class="st3" d="M69.2,242.5l-6.8-19.6l-1.4-9.9l-0.1-5.9l0.6-4.8l2.2-6.1c0,0-1.8,1.1-2.1,1.3s-5.5,4.2-5.5,4.2l-3.2,2.6
			l-2.3,2.6l-5.4,7.1l-4.3,9l-3.1,10.7l-0.7,11l0.2,7.5c0,0,1.2,7.3,1.4,6.3c0.2-1.1,0.1-5.7,0.1-5.7l1.2-5.1l3.2-4.4l3.7-2.8
			l3.5-1.7l4.9-1.1l6.5,0.3l2.9,1.4l3,1.6l2,0.9L69.2,242.5z"/>
	</g>
	<polygon class="st5" points="429.7,273.1 411.1,268.1 416.3,248.6 419.1,238.2 437.7,243.2 	"/>
	<line class="st5" x1="434.8" y1="253.7" x2="416.3" y2="248.7"/>
	<line class="st5" x1="413.8" y1="258.5" x2="432.2" y2="263.4"/>
	<rect x="420" y="244.1" transform="matrix(0.9659 0.2588 -0.2588 0.9659 77.8491 -101.1079)" class="st1" width="5.9" height="2"/>
	
		<rect x="417.5" y="253.5" transform="matrix(0.9659 0.2588 -0.2588 0.9659 80.197 -100.1455)" class="st1" width="5.9" height="2"/>
	
		<rect x="414.8" y="263.1" transform="matrix(0.9659 0.2588 -0.2588 0.9659 82.5826 -99.1269)" class="st1" width="5.9" height="2"/>
	
		<ellipse transform="matrix(0.2588 -0.9659 0.9659 0.2588 81.3912 601.3785)" class="st1" cx="432.6" cy="247.7" rx="1.5" ry="1.5"/>
	<ellipse transform="matrix(0.2588 -0.9659 0.9659 0.2588 70.3334 605.7216)" class="st1" cx="429.9" cy="257" rx="1.5" ry="1.5"/>
	
		<ellipse transform="matrix(0.2588 -0.9659 0.9659 0.2588 59.3524 610.3649)" class="st1" cx="427.4" cy="266.5" rx="1.5" ry="1.5"/>
	<path class="st4" d="M458.6,232.3L458.6,232.3l0-0.2c0.2-3.4-0.2-6.7-1-9.9c-0.8-3.2-2.1-6.1-3.9-8.7c-1.8-2.7-3.9-4.9-6.4-6.8
		c-2.6-1.9-5.4-3.3-8.5-4.1c-3.1-0.8-6.2-1-9.4-0.7c-3.1,0.4-6,1.3-8.9,2.7c-2.8,1.4-5.4,3.3-7.7,5.6c-2.3,2.4-4.3,5.1-5.9,8.1
		l-0.5,0.8l12.3,19.2l0.5-0.3l-11.6-19.4c-0.1-0.1-0.1-0.2,0-0.3c0,0,0,0,0,0c1.1-1.3,2.2-2.7,3.7-3.4c1.5-0.7,3.3-0.9,5.1-0.6
		c1.1,0.2,2.1,0.6,3,1.1c1,0.5,1.8,1.2,2.5,2c0.7,0.8,1.2,1.8,1.6,2.8c0.3,0.8,0.4,1.7,0.4,2.5l0.1,0l-0.1,0.5c0,0.1,0,0.1,0,0.1
		l-0.1-0.4l0,16.5l0.5,0l0.1-16.1l0,0c0,0,0-0.1,0-0.2c1.1-1.3,2-2.4,3.2-3.3c1.3-1,2.7-1.5,4.3-1.5c1.2,0,2.4,0.2,3.5,0.7
		c1.1,0.5,2,1.2,2.8,2c0.8,0.8,1.4,1.8,1.8,2.9c0.4,1.1,0.5,2.2,0.4,3.3l-8.2,14.3l0.5,0.3c0,0,0,0,0,0c0,0,0-0.1,0.1-0.1
		c0-0.1,0.1-0.1,0.1-0.2c0-0.1,0.1-0.2,0.1-0.3c0.1-0.1,0.1-0.2,0.2-0.3c0.1-0.1,0.1-0.3,0.2-0.4c0.1-0.1,0.2-0.3,0.2-0.4
		c0.1-0.2,0.2-0.3,0.3-0.5c0.1-0.2,0.2-0.4,0.3-0.5c0.1-0.2,0.2-0.4,0.3-0.6c0.1-0.2,0.2-0.4,0.3-0.6c0.1-0.2,0.2-0.4,0.4-0.6
		c0.1-0.2,0.2-0.4,0.4-0.6c0.1-0.2,0.3-0.4,0.4-0.7c0.1-0.2,0.3-0.4,0.4-0.7c0.1-0.2,0.3-0.5,0.4-0.7c0.1-0.2,0.3-0.5,0.4-0.7
		c0.1-0.2,0.3-0.4,0.4-0.7c0.1-0.2,0.3-0.4,0.4-0.7c0.1-0.2,0.2-0.4,0.4-0.6c0.1-0.2,0.2-0.4,0.4-0.6c0.1-0.2,0.2-0.4,0.3-0.6
		c0.1-0.2,0.2-0.4,0.3-0.6c0.1-0.2,0.2-0.4,0.3-0.5c0.1-0.2,0.2-0.3,0.3-0.5c0.1-0.1,0.2-0.3,0.2-0.4c0.1-0.1,0.1-0.3,0.2-0.4
		c0.1-0.1,0.1-0.2,0.2-0.3c0.1-0.1,0.1-0.2,0.2-0.3c0-0.1,0.1-0.1,0.1-0.2c0.1-0.2,0.2-0.4,0.3-0.6c0,0.1-0.1,0.1-0.1,0.2
		c0.1-0.2,0.3-0.3,0.4-0.5c0.1-0.2,0.3-0.3,0.4-0.5c0.3-0.3,0.6-0.6,0.9-0.9c0.3-0.3,0.6-0.5,1-0.8c0.3-0.2,0.7-0.4,1-0.6
		c0.3-0.2,0.7-0.4,1-0.5c1-0.4,2-0.7,3-0.7c1.1-0.1,2.1,0.1,3.2,0.4c1.8,0.6,3.4,1.9,4.5,3.6c1,1.6,1.5,3.5,1.4,5.2l-20.5,11
		l0.3,0.5l20.7-11.1L458.6,232.3l-0.2-2.6C458.4,229.7,458.6,232.3,458.6,232.3z M457.1,226.4c-1.2-1.8-2.9-3.2-4.8-3.8
		c-1.1-0.4-2.2-0.5-3.4-0.5c-1.1,0.1-2.1,0.3-3.2,0.8c-1.7,0.7-3.2,1.9-4.6,3.4c0-0.9-0.2-1.7-0.5-2.6c-0.4-1.1-1.1-2.2-1.9-3.1
		c-0.9-0.9-1.9-1.7-3-2.2c-1.2-0.5-2.4-0.8-3.7-0.7c-0.9,0-1.8,0.2-2.6,0.5c-0.7,0.3-1.4,0.6-2.1,1.2c-1,0.8-1.9,1.7-2.8,2.8
		c0-0.8-0.2-1.6-0.4-2.3c-0.4-1.1-1-2.1-1.7-3c-0.7-0.8-1.6-1.6-2.7-2.1c-1-0.5-2.1-0.9-3.2-1.1c-1.9-0.3-3.8-0.1-5.4,0.6
		c-0.8,0.4-1.6,1-2.2,1.6c1.2-1.9,2.7-3.7,4.3-5.4c2.3-2.3,4.8-4.1,7.6-5.5c2.8-1.4,5.7-2.3,8.7-2.6c3.1-0.4,6.2-0.1,9.2,0.7
		s5.8,2.2,8.3,4c2.4,1.8,4.5,4,6.2,6.6c1.7,2.6,3,5.5,3.8,8.6c0.5,1.9,0.8,3.9,1,5.9C457.8,227.6,457.5,227,457.1,226.4z"/>
	<path class="st5" d="M441.1,227c0.1-0.3,0.4-1.1,0.4-1.3c3.1-11.4,1.8-21.6-2.8-22.9c-4.6-1.2-10.8,7-13.9,18.4
		c-0.1,0.3-0.2,1.1-0.3,1.3"/>
	<path class="st3" d="M424.9,221l3.1-8.7l2.7-4.3l1.8-2.3l1.8-1.6l2.8-1.6c0,0-1.1-0.2-1.2-0.2c-0.2,0-3.5-0.2-3.5-0.2l-2.1,0
		l-1.7,0.3l-4.3,1l-4.5,2.1l-4.6,3.1l-3.8,4l-2.4,2.9c0,0-1.5,2.3-1.1,2c0.4-0.3,1.5-1.3,1.5-1.3l2.1-1.6l2.6-0.6l2.3,0.1l1.9,0.5
		l2.2,1.2l2.4,2.2l0.7,1.5l0.6,1.1l0.5,0.5L424.9,221z"/>
</g>
</svg>
