<?xml version="1.0" encoding="utf-8"?>
<!-- Generator: Adobe Illustrator 20.0.0, SVG Export Plug-In . SVG Version: 6.00 Build 0)  -->
<svg version="1.1" id="Layer_1" xmlns="http://www.w3.org/2000/svg" xmlns:xlink="http://www.w3.org/1999/xlink" x="0px" y="0px"
	 viewBox="0 0 250 100" style="enable-background:new 0 0 250 100;" xml:space="preserve">
<style type="text/css">
	.st0{opacity:0.85;fill:#2F3531;stroke:#000000;stroke-width:0.1109;stroke-miterlimit:10;}
	.st1{fill:#FFFFFF;}
</style>
<path class="st0" d="M161,14.5H15.9c-0.5,0-0.9,0.3-0.9,0.7v65.3c0,0.4,0.4,0.7,0.9,0.7h68.4l4.1,5l4.1-5H161c0.5,0,0.9-0.3,0.9-0.7
	V15.3C161.8,14.9,161.5,14.5,161,14.5z"/>
<g>
	<path class="st1" d="M146.7,41.6c0.4,0,0.7-0.1,1-0.4c0.3-0.3,0.4-0.6,0.4-1c0-0.4-0.1-0.7-0.4-1c-0.3-0.3-0.6-0.4-1-0.4
		c-0.4,0-0.7,0.1-1,0.4c-0.3,0.3-0.4,0.6-0.4,1c0,0.4,0.1,0.7,0.4,1C146.1,41.4,146.4,41.6,146.7,41.6z M145.9,39.4
		c0.2-0.2,0.5-0.3,0.8-0.3c0.3,0,0.6,0.1,0.8,0.3c0.2,0.2,0.3,0.5,0.3,0.8c0,0.3-0.1,0.6-0.3,0.8c-0.2,0.2-0.5,0.3-0.8,0.3
		c-0.3,0-0.6-0.1-0.8-0.3c-0.2-0.2-0.3-0.5-0.3-0.8C145.6,39.9,145.7,39.6,145.9,39.4z"/>
	<path class="st1" d="M146.5,40.3h0.2l0.4,0.7h0.3l-0.5-0.8c0.2-0.1,0.3-0.2,0.3-0.5c0-0.3-0.2-0.5-0.6-0.5h-0.4V41h0.2V40.3z
		 M146.5,39.5L146.5,39.5l0.2,0c0.2,0,0.4,0.1,0.4,0.3c0,0.1,0,0.2-0.1,0.2c-0.1,0-0.2,0.1-0.3,0.1c-0.1,0-0.1,0-0.2,0V39.5z"/>
	<path class="st1" d="M75.5,34.4h-4c-0.1,0-0.2,0.1-0.2,0.2v26.2c0,0.1,0.1,0.2,0.2,0.2h4c0.1,0,0.2-0.1,0.2-0.2V34.7
		C75.8,34.5,75.7,34.4,75.5,34.4z"/>
	<path class="st1" d="M81.7,34.4h-4c-0.1,0-0.2,0.1-0.2,0.2v26.2c0,0.1,0.1,0.2,0.2,0.2h4c0.1,0,0.2-0.1,0.2-0.2V34.7
		C81.9,34.5,81.8,34.4,81.7,34.4z"/>
	<path class="st1" d="M69,58.4c0.1-0.1,0.1-0.2,0-0.3l-2.8-2.8c-0.1-0.1-0.2-0.1-0.3,0c-1.3,1.2-3,1.9-4.7,1.9c-1.8,0-3.6-0.7-4.9-2
		c-1.3-1.3-2-3-2-4.9c0-1.8,0.7-3.6,2-4.9c2.2-2.2,5.4-2.6,8-1.3l-5.6,5.6c-0.1,0.1-0.1,0.2,0,0.3l2.8,2.8c0.1,0.1,0.2,0.1,0.3,0
		l7.4-7.4c0.4-0.4,0.6-1,0.6-1.6c0-0.6-0.2-1.1-0.6-1.6c-2.1-2.1-5-3.3-8-3.3s-5.9,1.2-8,3.3c-1.1,1.1-1.9,2.3-2.4,3.6
		c-1.7-4.1-5.8-7-10.5-7c-2.6,0-5,0.9-6.9,2.4v-6.5c0-0.1-0.1-0.2-0.2-0.2h-4c-0.1,0-0.2,0.1-0.2,0.2v15.5c0,6.3,5.1,11.3,11.3,11.3
		c4.7,0,8.7-2.9,10.5-7c0.6,1.3,1.4,2.6,2.4,3.6c2.1,2.1,5,3.3,8,3.3C64,61.5,66.8,60.4,69,58.4z M40.2,57.1c-3.8,0-6.9-3.1-6.9-6.9
		c0-3.8,3.1-6.9,6.9-6.9c3.8,0,6.9,3.1,6.9,6.9C47.1,54,44,57.1,40.2,57.1z"/>
	<path class="st1" d="M101.9,58.8c-0.9-1-1.6-2.1-2.2-3.3c0,0,0,0,0-0.1c-0.1-0.1-0.2-0.1-0.3,0c-1.3,1.1-2.9,1.7-4.5,1.7
		c-3.8,0-6.9-3.1-6.9-6.9c0-3.8,3.1-6.9,6.9-6.9c1.7,0,3.3,0.6,4.5,1.7c0.1,0.1,0.2,0.1,0.3,0c0,0,0,0,0-0.1
		c0.6-1.2,1.3-2.3,2.2-3.3c0.1-0.1,0.1-0.2,0-0.3c-2-1.6-4.5-2.4-7-2.4c-6.3,0-11.3,5.1-11.3,11.3c0,6.3,5.1,11.3,11.3,11.3
		c2.6,0,5-0.9,7-2.4C102,59,102,58.9,101.9,58.8z"/>
	<path class="st1" d="M136.6,38.8c-2.2,0-4.3,0.6-6.2,1.8c-1.8-1.2-3.9-1.8-6.2-1.8c-2.2,0-4.3,0.6-6.2,1.8l0,0
		c-1.8-1.1-3.9-1.8-6.2-1.8c-6.3,0-11.3,5.1-11.3,11.3c0,6.3,5.1,11.3,11.3,11.3c6.3,0,11.3-5.1,11.3-11.3c0-2.3-0.7-4.5-1.9-6.3
		c0.9-0.4,1.9-0.6,2.9-0.6c3.8,0,6.9,3.1,6.9,6.9v10.7c0,0.1,0.1,0.2,0.2,0.2h4c0.1,0,0.2-0.1,0.2-0.2V50.1c0-2.3-0.7-4.5-1.9-6.3
		c0.9-0.4,1.9-0.6,2.9-0.6c3.8,0,6.9,3.1,6.9,6.9v10.7c0,0.1,0.1,0.2,0.2,0.2h4c0.1,0,0.2-0.1,0.2-0.2V50.1
		C147.9,43.9,142.8,38.8,136.6,38.8z M111.9,57.1c-3.8,0-6.9-3.1-6.9-6.9c0-3.8,3.1-6.9,6.9-6.9c3.8,0,6.9,3.1,6.9,6.9
		C118.8,54,115.7,57.1,111.9,57.1z"/>
</g>
</svg>
