<?xml version="1.0" encoding="utf-8"?>
<!-- Generator: Adobe Illustrator 20.0.0, SVG Export Plug-In . SVG Version: 6.00 Build 0)  -->
<svg version="1.1" id="Layer_1" xmlns="http://www.w3.org/2000/svg" xmlns:xlink="http://www.w3.org/1999/xlink" x="0px" y="0px"
	 viewBox="0 0 595.3 841.9" style="enable-background:new 0 0 595.3 841.9;" xml:space="preserve">
<style type="text/css">
	.st0{opacity:0.4;}
	.st1{clip-path:url(#SVGID_2_);}
	.st2{fill:#F1EFE9;stroke:#E5E4DE;stroke-width:0.4;stroke-miterlimit:10;}
	.st3{fill:#FFFFFF;stroke:#FFFFFF;stroke-width:0.48;stroke-miterlimit:10;}
	.st4{fill:none;stroke:#FFFFFF;stroke-width:0.4;stroke-linecap:round;stroke-linejoin:round;stroke-miterlimit:10;}
</style>
<g>
	<g class="st0">
		<defs>
			<rect id="SVGID_1_" x="-11.3" y="-11.3" class="st0" width="618" height="864.6"/>
		</defs>
		<clipPath id="SVGID_2_">
			<use xlink:href="#SVGID_1_"  style="overflow:visible;"/>
		</clipPath>
		<g class="st1">
			<g>
				<g>
					<g>
						<path class="st2" d="M157.5-11.6c0,0.9-0.7,1.7-1.6,1.7c-0.9,0-1.7-0.7-1.7-1.7c0-0.9,0.7-1.6,1.7-1.6
							C156.8-13.2,157.5-12.5,157.5-11.6z"/>
						<path class="st3" d="M157.9-11.6c0,1.1-0.9,2-2,2c-1.1,0-2-0.9-2-2c0-1.1,0.9-2,2-2C157-13.5,157.9-12.6,157.9-11.6z"/>
					</g>
				</g>
				<g>
					<polygon class="st4" points="180.9,31.7 155.9,-11.6 205.9,-11.6 					"/>
					<polygon class="st4" points="205.9,-11.6 225.5,40.9 180.9,31.7 					"/>
					<polygon class="st4" points="225.5,40.9 205.9,-11.6 255.9,-11.6 					"/>
					<polygon class="st4" points="180.9,31.7 205.9,75 155.9,75 					"/>
					<polygon class="st4" points="205.9,75 180.9,31.7 225.5,40.9 					"/>
					<g>
						<path class="st2" d="M257.6-11.6c0,0.9-0.7,1.7-1.6,1.7c-0.9,0-1.7-0.7-1.7-1.7c0-0.9,0.7-1.6,1.7-1.6
							C256.9-13.2,257.6-12.5,257.6-11.6z"/>
						<ellipse class="st3" cx="180.9" cy="31.7" rx="2" ry="2"/>
						<ellipse class="st3" cx="205.9" cy="-11.6" rx="2" ry="2"/>
						<path class="st3" d="M257.9-11.6c0,1.1-0.9,2-2,2c-1.1,0-2-0.9-2-2c0-1.1,0.9-2,2-2C257-13.5,257.9-12.6,257.9-11.6z"/>
						<ellipse class="st3" cx="225.5" cy="40.9" rx="2" ry="2"/>
					</g>
				</g>
				<g>
					<polygon class="st4" points="296.2,24.7 255.9,-11.6 306,-11.6 					"/>
					<polygon class="st4" points="306,-11.6 341.1,34 296.2,24.7 					"/>
					<polygon class="st4" points="255.9,-11.6 296.2,24.7 225.5,40.9 					"/>
					<polygon class="st4" points="341.1,34 306,-11.6 356,-11.6 					"/>
					<polygon class="st4" points="256.7,74.9 225.5,40.9 296.2,24.7 					"/>
					<polygon class="st4" points="296.2,24.7 306,57.1 256.7,74.9 					"/>
					<polygon class="st4" points="225.5,40.9 256.7,74.9 205.9,75 					"/>
					<polygon class="st4" points="306,57.1 296.2,24.7 341.1,34 					"/>
					<g>
						<path class="st2" d="M357.7-11.6c0,0.9-0.7,1.7-1.6,1.7c-0.9,0-1.7-0.7-1.7-1.7c0-0.9,0.7-1.6,1.7-1.6
							C356.9-13.2,357.7-12.5,357.7-11.6z"/>
						<circle class="st3" cx="296.2" cy="24.7" r="2"/>
						<circle class="st3" cx="306" cy="-11.6" r="2"/>
						<path class="st3" d="M358-11.6c0,1.1-0.9,2-2,2c-1.1,0-2-0.9-2-2c0-1.1,0.9-2,2-2C357.1-13.5,358-12.6,358-11.6z"/>
						<ellipse class="st3" cx="341.1" cy="34" rx="2" ry="2"/>
					</g>
				</g>
				<g>
					<polygon class="st4" points="381,31.7 356,-11.6 406,-11.6 					"/>
					<polygon class="st4" points="406,-11.6 432.9,40.4 381,31.7 					"/>
					<polygon class="st4" points="356,-11.6 381,31.7 341.1,34 					"/>
					<polygon class="st4" points="432.9,40.4 406,-11.6 456.1,-11.6 					"/>
					<polygon class="st4" points="356,75 341.1,34 381,31.7 					"/>
					<polygon class="st4" points="381,31.7 407.3,83.9 356,75 					"/>
					<polygon class="st4" points="341.1,34 356,75 306,57.1 					"/>
					<polygon class="st4" points="407.3,83.9 381,31.7 432.9,40.4 					"/>
					<g>
						<path class="st2" d="M457.7-11.6c0,0.9-0.7,1.7-1.6,1.7c-0.9,0-1.7-0.7-1.7-1.7c0-0.9,0.7-1.6,1.7-1.6
							C457-13.2,457.7-12.5,457.7-11.6z"/>
						<ellipse class="st3" cx="381" cy="31.7" rx="2" ry="2"/>
						<ellipse class="st3" cx="406" cy="-11.6" rx="2" ry="2"/>
						<path class="st3" d="M458-11.6c0,1.1-0.9,2-2,2c-1.1,0-2-0.9-2-2c0-1.1,0.9-2,2-2C457.2-13.5,458-12.6,458-11.6z"/>
						<circle class="st3" cx="432.9" cy="40.4" r="2"/>
					</g>
				</g>
				<g>
					<polygon class="st4" points="481.1,31.7 456.1,-11.6 506.1,-11.6 					"/>
					<polygon class="st4" points="506.1,-11.6 531.1,31.7 481.1,31.7 					"/>
					<polygon class="st4" points="456.1,-11.6 481.1,31.7 432.9,40.4 					"/>
					<polygon class="st4" points="531.1,31.7 506.1,-11.6 556.1,-11.6 					"/>
					<polygon class="st4" points="456.1,75 432.9,40.4 481.1,31.7 					"/>
					<polygon class="st4" points="481.1,31.7 506.1,75 456.1,75 					"/>
					<polygon class="st4" points="432.9,40.4 456.1,75 407.3,83.9 					"/>
					<polygon class="st4" points="506.1,75 481.1,31.7 531.1,31.7 					"/>
					<g>
						<path class="st2" d="M557.8-11.6c0,0.9-0.7,1.7-1.6,1.7c-0.9,0-1.7-0.7-1.7-1.7c0-0.9,0.7-1.6,1.7-1.6
							C557-13.2,557.8-12.5,557.8-11.6z"/>
						<ellipse class="st3" cx="481.1" cy="31.7" rx="2" ry="2"/>
						<ellipse class="st3" cx="506.1" cy="-11.6" rx="2" ry="2"/>
						<ellipse class="st3" cx="556.1" cy="-11.6" rx="2" ry="2"/>
						<ellipse class="st3" cx="531.1" cy="31.7" rx="2" ry="2"/>
					</g>
				</g>
				<g>
					<polygon class="st4" points="581.1,31.7 556.1,-11.6 606.1,-11.6 					"/>
					<polygon class="st4" points="556.1,-11.6 581.1,31.7 531.1,31.7 					"/>
					<polygon class="st4" points="556.1,75 531.1,31.7 581.1,31.7 					"/>
					<polygon class="st4" points="606.1,75 581.1,31.7 631.2,31.7 					"/>
					<polygon class="st4" points="581.1,31.7 606.1,75 556.1,75 					"/>
					<polygon class="st4" points="531.1,31.7 556.1,75 506.1,75 					"/>
					<g>
						<ellipse class="st3" cx="581.1" cy="31.7" rx="2" ry="2"/>
						<ellipse class="st3" cx="606.1" cy="-11.6" rx="2" ry="2"/>
					</g>
				</g>
				<g>
					<g>
						<path class="st2" d="M157.5,75c0,0.9-0.7,1.6-1.6,1.6c-0.9,0-1.7-0.7-1.7-1.6c0-0.9,0.7-1.6,1.7-1.6
							C156.8,73.4,157.5,74.1,157.5,75z"/>
						<path class="st3" d="M157.9,75c0,1.1-0.9,2-2,2c-1.1,0-2-0.9-2-2c0-1.1,0.9-2,2-2C157,73,157.9,73.9,157.9,75z"/>
					</g>
				</g>
				<g>
					<polygon class="st4" points="180.9,118.3 155.9,75 205.9,75 					"/>
					<polygon class="st4" points="205.9,75 241.1,132.9 180.9,118.3 					"/>
					<polygon class="st4" points="241.1,132.9 205.9,75 256.7,74.9 					"/>
					<polygon class="st4" points="180.9,118.3 213.1,180.2 155.9,161.6 					"/>
					<polygon class="st4" points="213.1,180.2 180.9,118.3 241.1,132.9 					"/>
					<g>
						<circle class="st2" cx="256.7" cy="74.9" r="1.6"/>
						<ellipse class="st3" cx="180.9" cy="118.3" rx="2" ry="2"/>
						<ellipse class="st3" cx="205.9" cy="75" rx="2" ry="2"/>
						<ellipse class="st3" cx="256.7" cy="74.9" rx="2" ry="2"/>
						<ellipse class="st3" cx="241.1" cy="132.9" rx="2" ry="2"/>
					</g>
				</g>
				<g>
					<polygon class="st4" points="294.3,120 256.7,74.9 306,57.1 					"/>
					<polygon class="st4" points="306,57.1 331.5,104.3 294.3,120 					"/>
					<polygon class="st4" points="256.7,74.9 294.3,120 241.1,132.9 					"/>
					<polygon class="st4" points="331.5,104.3 306,57.1 356,75 					"/>
					<polygon class="st4" points="264.1,174.2 241.1,132.9 294.3,120 					"/>
					<polygon class="st4" points="294.3,120 306,161.6 264.1,174.2 					"/>
					<polygon class="st4" points="241.1,132.9 264.1,174.2 213.1,180.2 					"/>
					<polygon class="st4" points="306,161.6 294.3,120 331.5,104.3 					"/>
					<g>
						<path class="st2" d="M357.7,75c0,0.9-0.7,1.6-1.6,1.6c-0.9,0-1.7-0.7-1.7-1.6c0-0.9,0.7-1.6,1.7-1.6
							C356.9,73.4,357.7,74.1,357.7,75z"/>
						<ellipse class="st3" cx="294.3" cy="120" rx="2" ry="2"/>
						<circle class="st3" cx="306" cy="57.1" r="2"/>
						<path class="st3" d="M358,75c0,1.1-0.9,2-2,2c-1.1,0-2-0.9-2-2c0-1.1,0.9-2,2-2C357.1,73,358,73.9,358,75z"/>
						<ellipse class="st3" cx="331.5" cy="104.3" rx="2" ry="2"/>
					</g>
				</g>
				<g>
					<polygon class="st4" points="381,118.3 356,75 407.3,83.9 					"/>
					<polygon class="st4" points="407.3,83.9 431,118.3 381,118.3 					"/>
					<polygon class="st4" points="356,75 381,118.3 331.4,104.3 					"/>
					<polygon class="st4" points="431,118.3 407.3,83.9 456.1,75 					"/>
					<polygon class="st4" points="352.7,170.9 331.5,104.3 381,118.3 					"/>
					<polygon class="st4" points="381,118.3 406.7,161.6 352.7,170.9 					"/>
					<polygon class="st4" points="331.5,104.3 352.7,170.9 306,161.6 					"/>
					<polygon class="st4" points="406.7,161.6 381,118.3 431,118.3 					"/>
					<g>
						<path class="st2" d="M457.7,75c0,0.9-0.7,1.6-1.6,1.6c-0.9,0-1.7-0.7-1.7-1.6c0-0.9,0.7-1.6,1.7-1.6
							C457,73.4,457.7,74.1,457.7,75z"/>
						<ellipse class="st3" cx="381" cy="118.3" rx="2" ry="2"/>
						<ellipse class="st3" cx="407.3" cy="83.9" rx="2" ry="2"/>
						<path class="st3" d="M458,75c0,1.1-0.9,2-2,2c-1.1,0-2-0.9-2-2c0-1.1,0.9-2,2-2C457.2,73,458,73.9,458,75z"/>
						<ellipse class="st3" cx="431" cy="118.3" rx="2" ry="2"/>
					</g>
				</g>
				<g>
					<polygon class="st4" points="481.1,118.3 456.1,75 506.1,75 					"/>
					<polygon class="st4" points="506.1,75 531.1,118.3 481.1,118.3 					"/>
					<polygon class="st4" points="456.1,75 481.1,118.3 431,118.3 					"/>
					<polygon class="st4" points="531.1,118.3 506.1,75 556.1,75 					"/>
					<polygon class="st4" points="458.3,161.6 431,118.3 481.1,118.3 					"/>
					<polygon class="st4" points="481.1,118.3 505.4,161.6 458.3,161.6 					"/>
					<polygon class="st4" points="431,118.3 458.3,161.6 406.7,161.6 					"/>
					<polygon class="st4" points="505.4,161.6 481.1,118.3 531.1,118.3 					"/>
					<g>
						<path class="st2" d="M557.8,75c0,0.9-0.7,1.6-1.6,1.6c-0.9,0-1.7-0.7-1.7-1.6c0-0.9,0.7-1.6,1.7-1.6
							C557,73.4,557.8,74.1,557.8,75z"/>
						<ellipse class="st3" cx="481.1" cy="118.3" rx="2" ry="2"/>
						<ellipse class="st3" cx="506.1" cy="75" rx="2" ry="2"/>
						<ellipse class="st3" cx="556.1" cy="75" rx="2" ry="2"/>
						<circle class="st3" cx="531.1" cy="118.3" r="2"/>
					</g>
				</g>
				<g>
					<polygon class="st4" points="581.1,118.3 556.1,75 606.1,75 					"/>
					<polygon class="st4" points="556.1,75 581.1,118.3 531.1,118.3 					"/>
					<polygon class="st4" points="556.1,161.6 531.1,118.3 581.1,118.3 					"/>
					<polygon class="st4" points="606.1,161.6 581.1,118.3 631.2,118.3 					"/>
					<polygon class="st4" points="581.1,118.3 606.1,161.6 556.1,161.6 					"/>
					<polygon class="st4" points="531.1,118.3 556.1,161.6 505.4,161.6 					"/>
					<g>
						<ellipse class="st3" cx="581.1" cy="118.3" rx="2" ry="2"/>
						<ellipse class="st3" cx="606.1" cy="75" rx="2" ry="2"/>
					</g>
				</g>
				<g>
					<g>
						<path class="st2" d="M157.5,161.6c0,0.9-0.7,1.7-1.6,1.7c-0.9,0-1.7-0.7-1.7-1.7c0-0.9,0.7-1.6,1.7-1.6
							C156.8,159.9,157.5,160.7,157.5,161.6z"/>
						<path class="st3" d="M157.9,161.6c0,1.1-0.9,2-2,2c-1.1,0-2-0.9-2-2c0-1.1,0.9-2,2-2C157,159.6,157.9,160.5,157.9,161.6z"/>
						<ellipse class="st3" cx="125.3" cy="123.5" rx="2" ry="2"/>
					</g>
				</g>
				<g>
					<polygon class="st4" points="181.7,218.1 155.9,161.6 213.1,180.2 					"/>
					<polygon class="st4" points="213.1,180.2 233.1,220 181.7,218.1 					"/>
					<polygon class="st4" points="233.1,220 213.1,180.2 264.1,174.2 					"/>
					<polygon class="st4" points="181.7,218.1 205.9,248.1 155.9,248.1 					"/>
					<polygon class="st4" points="205.9,248.1 181.7,218.1 233.1,220 					"/>
					<g>
						<path class="st2" d="M265.7,174.2c0,0.9-0.7,1.6-1.6,1.6c-0.9,0-1.7-0.7-1.7-1.6c0-0.9,0.7-1.6,1.7-1.6
							C265,172.6,265.7,173.3,265.7,174.2z"/>
						<ellipse class="st3" cx="181.7" cy="218.1" rx="2" ry="2"/>
						<ellipse class="st3" cx="213.1" cy="180.2" rx="2" ry="2"/>
						<path class="st3" d="M266.1,174.2c0,1.1-0.9,2-2,2c-1.1,0-2-0.9-2-2c0-1.1,0.9-2,2-2C265.2,172.3,266.1,173.1,266.1,174.2z"/>
						<circle class="st3" cx="233.1" cy="220" r="2"/>
					</g>
				</g>
				<g>
					<polygon class="st4" points="294.3,210.2 264.1,174.2 306,161.6 					"/>
					<polygon class="st4" points="306,161.6 331,204.9 294.3,210.2 					"/>
					<polygon class="st4" points="264.1,174.2 294.3,210.2 233.1,220 					"/>
					<polygon class="st4" points="331,204.9 306,161.6 352.8,170.9 					"/>
					<polygon class="st4" points="258.1,261 233.1,220 294.3,210.2 					"/>
					<polygon class="st4" points="294.3,210.2 311,249.1 258.1,261 					"/>
					<polygon class="st4" points="233.1,220 258.1,261 205.9,248.1 					"/>
					<polygon class="st4" points="311,249.1 294.3,210.2 331,204.9 					"/>
					<g>
						<path class="st2" d="M354.4,170.9c0,0.9-0.7,1.7-1.6,1.7c-0.9,0-1.7-0.7-1.7-1.7c0-0.9,0.7-1.6,1.7-1.6
							C353.7,169.3,354.4,170,354.4,170.9z"/>
						<ellipse class="st3" cx="294.3" cy="210.2" rx="2" ry="2"/>
						<circle class="st3" cx="306" cy="161.6" r="2"/>
						<path class="st3" d="M354.7,170.9c0,1.1-0.9,2-2,2c-1.1,0-2-0.9-2-2c0-1.1,0.9-2,2-2C353.8,168.9,354.7,169.8,354.7,170.9z"/>
						<ellipse class="st3" cx="331" cy="204.9" rx="2" ry="2"/>
					</g>
				</g>
				<g>
					<polygon class="st4" points="381,204.9 352.7,170.9 406.7,161.6 					"/>
					<polygon class="st4" points="406.7,161.6 433,204.9 381,204.9 					"/>
					<polygon class="st4" points="352.7,170.9 381,204.9 331,204.9 					"/>
					<polygon class="st4" points="433,204.9 406.7,161.6 458.3,161.6 					"/>
					<polygon class="st4" points="363.6,252.6 331,204.9 381,204.9 					"/>
					<polygon class="st4" points="381,204.9 418,243 363.6,252.6 					"/>
					<polygon class="st4" points="331,204.9 363.6,252.6 311,249.1 					"/>
					<polygon class="st4" points="418,243 381,204.9 433,204.9 					"/>
					<g>
						<path class="st2" d="M459.9,161.6c0,0.9-0.7,1.6-1.6,1.6c-0.9,0-1.7-0.7-1.7-1.6c0-0.9,0.7-1.6,1.7-1.6
							C459.2,159.9,459.9,160.7,459.9,161.6z"/>
						<ellipse class="st3" cx="381" cy="204.9" rx="2" ry="2"/>
						<ellipse class="st3" cx="406.7" cy="161.6" rx="2" ry="2"/>
						<ellipse class="st3" cx="458.3" cy="161.6" rx="2" ry="2"/>
						<ellipse class="st3" cx="433" cy="204.9" rx="2" ry="2"/>
					</g>
				</g>
				<g>
					<polygon class="st4" points="481.1,204.9 458.3,161.6 505.4,161.6 					"/>
					<polygon class="st4" points="505.4,161.6 531.1,204.9 481.1,204.9 					"/>
					<polygon class="st4" points="458.3,161.6 481.1,204.9 433,204.9 					"/>
					<polygon class="st4" points="531.1,204.9 505.4,161.6 556.1,161.6 					"/>
					<polygon class="st4" points="460.2,248.1 433,204.9 481.1,204.9 					"/>
					<polygon class="st4" points="481.1,204.9 506.1,248.1 460.2,248.1 					"/>
					<polygon class="st4" points="433,204.9 460.2,248.1 418,243 					"/>
					<polygon class="st4" points="506.1,248.1 481.1,204.9 531.1,204.9 					"/>
					<g>
						<path class="st2" d="M557.8,161.6c0,0.9-0.7,1.7-1.6,1.7c-0.9,0-1.7-0.7-1.7-1.7c0-0.9,0.7-1.6,1.7-1.6
							C557,159.9,557.8,160.7,557.8,161.6z"/>
						<ellipse class="st3" cx="481.1" cy="204.9" rx="2" ry="2"/>
						<ellipse class="st3" cx="505.4" cy="161.6" rx="2" ry="2"/>
						<ellipse class="st3" cx="556.1" cy="161.6" rx="2" ry="2"/>
						<ellipse class="st3" cx="531.1" cy="204.9" rx="2" ry="2"/>
					</g>
				</g>
				<g>
					<polygon class="st4" points="581.1,204.9 556.1,161.6 606.1,161.6 					"/>
					<polygon class="st4" points="556.1,161.6 581.1,204.9 531.1,204.9 					"/>
					<polygon class="st4" points="556.1,248.1 531.1,204.9 581.1,204.9 					"/>
					<polygon class="st4" points="606.1,248.1 581.1,204.9 631.2,204.9 					"/>
					<polygon class="st4" points="581.1,204.9 606.1,248.1 556.1,248.1 					"/>
					<polygon class="st4" points="531.1,204.9 556.1,248.1 506.1,248.1 					"/>
					<g>
						<ellipse class="st3" cx="581.1" cy="204.9" rx="2" ry="2"/>
						<ellipse class="st3" cx="606.1" cy="161.6" rx="2" ry="2"/>
					</g>
				</g>
				<g>
					<g>
						<path class="st2" d="M157.5,248.1c0,0.9-0.7,1.7-1.6,1.7c-0.9,0-1.7-0.7-1.7-1.7c0-0.9,0.7-1.6,1.7-1.6
							C156.8,246.5,157.5,247.2,157.5,248.1z"/>
						<path class="st3" d="M157.9,248.1c0,1.1-0.9,2-2,2c-1.1,0-2-0.9-2-2c0-1.1,0.9-2,2-2C157,246.2,157.9,247,157.9,248.1z"/>
						<path class="st3" d="M100,332.8c0,1.1-0.9,2-2,2c-1.1,0-2-0.9-2-2c0-1.1,0.9-2,2-2C99.1,330.8,100,331.7,100,332.8z"/>
					</g>
				</g>
				<g>
					<polygon class="st4" points="181.1,285 155.9,248.1 205.9,248.1 					"/>
					<polygon class="st4" points="205.9,248.1 231.7,298.4 181.1,285 					"/>
					<polygon class="st4" points="155.9,248.1 181.1,285 130.9,291.4 					"/>
					<polygon class="st4" points="231.7,298.4 205.9,248.1 258.1,261 					"/>
					<polygon class="st4" points="156.8,326.2 130.9,291.4 181.1,285 					"/>
					<polygon class="st4" points="181.1,285 201.2,345.5 156.8,326.2 					"/>
					<polygon class="st4" points="201.2,345.5 181.1,285 231.7,298.4 					"/>
					<g>
						<path class="st2" d="M259.7,261c0,0.9-0.7,1.7-1.6,1.7c-0.9,0-1.7-0.7-1.7-1.7c0-0.9,0.7-1.6,1.7-1.6
							C259,259.4,259.7,260.1,259.7,261z"/>
						<ellipse class="st3" cx="181.1" cy="285" rx="2" ry="2"/>
						<circle class="st3" cx="130.9" cy="291.4" r="2"/>
						<ellipse class="st3" cx="205.9" cy="248.1" rx="2" ry="2"/>
						<path class="st3" d="M260.1,261c0,1.1-0.9,2-2,2c-1.1,0-2-0.9-2-2c0-1.1,0.9-2,2-2C259.2,259,260.1,259.9,260.1,261z"/>
						<ellipse class="st3" cx="231.7" cy="298.4" rx="2" ry="2"/>
					</g>
				</g>
				<g>
					<polygon class="st4" points="281,291.4 258.1,261 311,249.1 					"/>
					<polygon class="st4" points="311,249.1 331,291.4 281,291.4 					"/>
					<polygon class="st4" points="258.1,261 281,291.4 231.7,298.4 					"/>
					<polygon class="st4" points="331,291.4 311,249.1 363.6,252.6 					"/>
					<polygon class="st4" points="254.6,323.4 231.7,298.4 281,291.4 					"/>
					<polygon class="st4" points="281,291.4 297,340.1 254.6,323.4 					"/>
					<polygon class="st4" points="231.7,298.4 254.6,323.4 201.2,345.5 					"/>
					<polygon class="st4" points="297,340.1 281,291.4 331,291.4 					"/>
					<g>
						<ellipse class="st2" cx="363.6" cy="252.6" rx="1.6" ry="1.6"/>
						<ellipse class="st3" cx="281" cy="291.4" rx="2" ry="2"/>
						<circle class="st3" cx="311" cy="249.1" r="2"/>
						<ellipse class="st3" cx="363.6" cy="252.6" rx="2" ry="2"/>
						<ellipse class="st3" cx="331" cy="291.4" rx="2" ry="2"/>
					</g>
				</g>
				<g>
					<polygon class="st4" points="384.3,296.5 363.6,252.6 418,243 					"/>
					<polygon class="st4" points="418,243 437.2,291.4 384.3,296.5 					"/>
					<polygon class="st4" points="363.6,252.6 384.3,296.5 331,291.4 					"/>
					<polygon class="st4" points="437.2,291.4 418,243 460.3,248.1 					"/>
					<polygon class="st4" points="349,331.7 331,291.4 384.3,296.5 					"/>
					<polygon class="st4" points="384.3,296.5 411.1,327.6 349,331.7 					"/>
					<polygon class="st4" points="331,291.4 349,331.7 297,340.1 					"/>
					<polygon class="st4" points="411.1,327.6 384.3,296.5 437.2,291.4 					"/>
					<g>
						<ellipse class="st2" cx="460.3" cy="248.1" rx="1.6" ry="1.7"/>
						<ellipse class="st3" cx="384.3" cy="296.5" rx="2" ry="2"/>
						<ellipse class="st3" cx="418" cy="243" rx="2" ry="2"/>
						<path class="st3" d="M462.2,248.1c0,1.1-0.9,2-2,2c-1.1,0-2-0.9-2-2c0-1.1,0.9-2,2-2C461.3,246.2,462.2,247,462.2,248.1z"/>
						<ellipse class="st3" cx="437.2" cy="291.4" rx="2" ry="2"/>
					</g>
				</g>
				<g>
					<polygon class="st4" points="481.1,291.4 460.2,248.1 506.1,248.1 					"/>
					<polygon class="st4" points="506.1,248.1 531.1,291.4 481.1,291.4 					"/>
					<polygon class="st4" points="460.2,248.1 481.1,291.4 437.2,291.4 					"/>
					<polygon class="st4" points="531.1,291.4 506.1,248.1 556.1,248.1 					"/>
					<polygon class="st4" points="456.1,334.7 437.2,291.4 481.1,291.4 					"/>
					<polygon class="st4" points="481.1,291.4 506.1,334.7 456.1,334.7 					"/>
					<polygon class="st4" points="437.2,291.4 456.1,334.7 411.1,327.6 					"/>
					<polygon class="st4" points="506.1,334.7 481.1,291.4 531.1,291.4 					"/>
					<g>
						<path class="st2" d="M557.8,248.1c0,0.9-0.7,1.7-1.6,1.7c-0.9,0-1.7-0.7-1.7-1.7c0-0.9,0.7-1.6,1.7-1.6
							C557,246.5,557.8,247.2,557.8,248.1z"/>
						<ellipse class="st3" cx="481.1" cy="291.4" rx="2" ry="2"/>
						<ellipse class="st3" cx="506.1" cy="248.1" rx="2" ry="2"/>
						<ellipse class="st3" cx="556.1" cy="248.1" rx="2" ry="2"/>
						<circle class="st3" cx="531.1" cy="291.4" r="2"/>
					</g>
				</g>
				<g>
					<polygon class="st4" points="581.1,291.4 556.1,248.1 606.1,248.1 					"/>
					<polygon class="st4" points="556.1,248.1 581.1,291.4 531.1,291.4 					"/>
					<polygon class="st4" points="556.1,334.7 531.1,291.4 581.1,291.4 					"/>
					<polygon class="st4" points="606.1,334.7 581.1,291.4 631.2,291.4 					"/>
					<polygon class="st4" points="581.1,291.4 606.1,334.7 556.1,334.7 					"/>
					<polygon class="st4" points="531.1,291.4 556.1,334.7 506.1,334.7 					"/>
					<g>
						<ellipse class="st3" cx="581.1" cy="291.4" rx="2" ry="2"/>
						<ellipse class="st3" cx="606.1" cy="248.1" rx="2" ry="2"/>
					</g>
				</g>
				<g>
					<g>
						<circle class="st2" cx="156.8" cy="326.2" r="1.6"/>
						<path class="st3" d="M158.8,326.2c0,1.1-0.9,2-2,2c-1.1,0-2-0.9-2-2s0.9-2,2-2C157.9,324.2,158.8,325.1,158.8,326.2z"/>
						<path class="st3" d="M132.8,378c0,1.1-0.9,2-2,2c-1.1,0-2-0.9-2-2c0-1.1,0.9-2,2-2C132,376,132.8,376.9,132.8,378z"/>
					</g>
				</g>
				<g>
					<polygon class="st4" points="180.9,378 156.8,326.2 201.2,345.5 					"/>
					<polygon class="st4" points="201.2,345.5 233.1,387.9 180.9,378 					"/>
					<polygon class="st4" points="156.8,326.2 180.9,378 130.9,378 					"/>
					<polygon class="st4" points="233.1,387.9 201.2,345.5 254.7,323.4 					"/>
					<polygon class="st4" points="145.7,430.8 130.9,378 180.9,378 					"/>
					<polygon class="st4" points="205.9,410.8 180.9,378 233.1,387.9 					"/>
					<g>
						<path class="st2" d="M256.3,323.4c0,0.9-0.7,1.6-1.6,1.6c-0.9,0-1.7-0.7-1.7-1.6c0-0.9,0.7-1.6,1.7-1.6
							C255.6,321.7,256.3,322.5,256.3,323.4z"/>
						<ellipse class="st3" cx="180.9" cy="378" rx="2" ry="2"/>
						<circle class="st3" cx="201.2" cy="345.5" r="2"/>
						<path class="st3" d="M256.6,323.4c0,1.1-0.9,2-2,2c-1.1,0-2-0.9-2-2c0-1.1,0.9-2,2-2C255.7,321.4,256.6,322.3,256.6,323.4z"/>
						<circle class="st3" cx="233.1" cy="387.9" r="2"/>
					</g>
				</g>
				<g>
					<polygon class="st4" points="281,378 254.6,323.4 297,340.1 					"/>
					<polygon class="st4" points="297,340.1 331.5,385.1 281,378 					"/>
					<polygon class="st4" points="254.6,323.4 281,378 233.1,387.9 					"/>
					<polygon class="st4" points="331.5,385.1 297,340.1 349.1,331.7 					"/>
					<polygon class="st4" points="256.6,432.8 233.1,387.9 281,378 					"/>
					<polygon class="st4" points="306,421.3 281,378 331.5,385.1 					"/>
					<g>
						<path class="st2" d="M350.7,331.7c0,0.9-0.7,1.7-1.6,1.7c-0.9,0-1.7-0.7-1.7-1.7c0-0.9,0.7-1.6,1.7-1.6
							C350,330.1,350.7,330.8,350.7,331.7z"/>
						<circle class="st3" cx="281" cy="378" r="2"/>
						<ellipse class="st3" cx="297" cy="340.1" rx="2" ry="2"/>
						<ellipse class="st3" cx="349.1" cy="331.7" rx="2" ry="2"/>
						<ellipse class="st3" cx="331.5" cy="385.1" rx="2" ry="2"/>
					</g>
				</g>
				<g>
					<polygon class="st4" points="388,374.7 349,331.7 411.1,327.6 					"/>
					<polygon class="st4" points="411.1,327.6 431,378 388,374.7 					"/>
					<polygon class="st4" points="349,331.7 388,374.7 331.4,385.1 					"/>
					<polygon class="st4" points="431,378 411.1,327.6 456.1,334.7 					"/>
					<polygon class="st4" points="359.4,430.9 331.5,385.1 388,374.7 					"/>
					<polygon class="st4" points="409.4,412.8 388,374.7 431,378 					"/>
					<g>
						<path class="st2" d="M457.7,334.7c0,0.9-0.7,1.6-1.6,1.6c-0.9,0-1.7-0.7-1.7-1.6c0-0.9,0.7-1.6,1.7-1.6
							C457,333,457.7,333.8,457.7,334.7z"/>
						<ellipse class="st3" cx="388" cy="374.7" rx="2" ry="2"/>
						<circle class="st3" cx="411.1" cy="327.6" r="2"/>
						<path class="st3" d="M458,334.7c0,1.1-0.9,2-2,2c-1.1,0-2-0.9-2-2c0-1.1,0.9-2,2-2C457.2,332.7,458,333.6,458,334.7z"/>
						<ellipse class="st3" cx="431" cy="378" rx="2" ry="2"/>
					</g>
				</g>
				<g>
					<polygon class="st4" points="481.1,378 456.1,334.7 506.1,334.7 					"/>
					<polygon class="st4" points="506.1,334.7 531.1,378 481.1,378 					"/>
					<polygon class="st4" points="456.1,334.7 481.1,378 431,378 					"/>
					<polygon class="st4" points="581.1,378 606.2,421.3 556.1,421.3 					"/>
					<polygon class="st4" points="531.1,378 506.1,334.7 556.1,334.7 					"/>
					<polygon class="st4" points="456.1,421.3 431,378 481.1,378 					"/>
					<polygon class="st4" points="506.1,421.3 481.1,378 531.1,378 					"/>
					<g>
						<path class="st2" d="M557.8,334.7c0,0.9-0.7,1.6-1.6,1.6c-0.9,0-1.7-0.7-1.7-1.6c0-0.9,0.7-1.6,1.7-1.6
							C557,333,557.8,333.8,557.8,334.7z"/>
						<ellipse class="st3" cx="481.1" cy="378" rx="2" ry="2"/>
						<ellipse class="st3" cx="506.1" cy="334.7" rx="2" ry="2"/>
						<ellipse class="st3" cx="556.1" cy="334.7" rx="2" ry="2"/>
						<ellipse class="st3" cx="531.1" cy="378" rx="2" ry="2"/>
					</g>
				</g>
				<g>
					<polygon class="st4" points="581.1,378 556.1,334.7 606.1,334.7 					"/>
					<polygon class="st4" points="556.1,334.7 581.1,378 531.1,378 					"/>
					<polygon class="st4" points="556.1,421.3 531.1,378 581.1,378 					"/>
					<polygon class="st4" points="606.1,421.3 581.1,378 631.2,378 					"/>
					<g>
						<ellipse class="st3" cx="581.1" cy="378" rx="2" ry="2"/>
						<circle class="st3" cx="606.1" cy="334.7" r="2"/>
					</g>
				</g>
				<path class="st4" d="M-70.2,289.4c108.3-5.6,185.3-57.5,226.1-127.8"/>
				<path class="st4" d="M-81.3,71c44.9,54.6,176.3,124.5,263,147.1"/>
				<path class="st4" d="M-59.1,5.8c59.7,18.4,177,91.8,215,155.7"/>
				<path class="st4" d="M-70.2,181.6c42.1-20.4,169.2-63.3,251.1-63.3"/>
				<path class="st4" d="M-73.4,196.5c173.1,0,207.9-84.2,229.3-121.5"/>
				<path class="st4" d="M-59.1,218.1c112.5-23.3,157.8-11.4,215,30"/>
				<path class="st4" d="M-59.1,398.3c58.8,4.4,149.7-37.5,189.9-106.9"/>
				<path class="st4" d="M130.9,291.4C94.1,242,36.2,181.7-83.1,149.9"/>
				<path class="st4" d="M-83.1,322.7c34.7,6.5,148.5,21.2,239.9,3.5"/>
				<path class="st4" d="M130.9,378C96.1,455.5-47.6,552.8-73.4,572.7"/>
				<path class="st4" d="M130.9,378c-26.3-51.8-123-144.6-245.9-147.4"/>
				<path class="st4" d="M130.9,378C46.4,378-45.2,487.5-45.2,487.5"/>
				<path class="st4" d="M-104.4,369c91.2-2.8,153.4-77.5,237.3-77.5"/>
				<path class="st3" d="M132.8,259.9"/>
				<path class="st4" d="M-73.4,49.7C-41,58.5,46.8,75,155.9,75"/>
				<path class="st4" d="M155.9,75C127.2,23.2,39.9-43.8,5.7-54.9"/>
				<path class="st4" d="M-51.2-22C4.8-9.6,137.1,22,180.9,31.7"/>
				<path class="st4" d="M-31.9,85.6c52.7,11.7,92,57.3,187.8,75.9"/>
			</g>
			<g>
				<g>
					<g>
						<circle class="st2" cx="145.7" cy="430.8" r="1.6"/>
						<path class="st3" d="M147.7,430.8c0,1.1-0.9,2-2,2c-1.1,0-2-0.9-2-2c0-1.1,0.9-2,2-2C146.8,428.8,147.7,429.7,147.7,430.8z"/>
						<path class="st3" d="M64.8,503.8c0,1.1-0.9,2-2,2c-1.1,0-2-0.9-2-2c0-1.1,0.9-2,2-2C63.9,501.8,64.8,502.7,64.8,503.8z"/>
					</g>
				</g>
				<g>
					<polygon class="st4" points="180.9,464.5 145.7,430.8 205.9,410.8 					"/>
					<polygon class="st4" points="205.9,410.8 225.5,473.7 180.9,464.5 					"/>
					<polygon class="st4" points="225.5,473.7 205.9,410.8 256.6,432.8 					"/>
					<polygon class="st4" points="180.9,464.5 208.1,520.6 155.9,507.8 					"/>
					<polygon class="st4" points="208.1,520.6 180.9,464.5 225.5,473.7 					"/>
					<g>
						<path class="st2" d="M258.3,432.8c0,0.9-0.7,1.7-1.6,1.7c-0.9,0-1.7-0.7-1.7-1.7c0-0.9,0.7-1.6,1.7-1.6
							C257.5,431.1,258.3,431.8,258.3,432.8z"/>
						<ellipse class="st3" cx="180.9" cy="464.5" rx="2" ry="2"/>
						<ellipse class="st3" cx="205.9" cy="410.8" rx="2" ry="2"/>
						<path class="st3" d="M258.6,432.8c0,1.1-0.9,2-2,2c-1.1,0-2-0.9-2-2c0-1.1,0.9-2,2-2C257.7,430.8,258.6,431.7,258.6,432.8z"/>
						<ellipse class="st3" cx="225.5" cy="473.7" rx="2" ry="2"/>
					</g>
				</g>
				<g>
					<polygon class="st4" points="292,457.9 256.6,432.8 306,421.3 					"/>
					<polygon class="st4" points="306,421.3 340,473.8 292,457.9 					"/>
					<polygon class="st4" points="256.6,432.8 292,457.9 225.5,473.7 					"/>
					<polygon class="st4" points="340,473.8 306,421.3 359.4,430.9 					"/>
					<polygon class="st4" points="265.1,515.3 225.5,473.7 292,457.9 					"/>
					<polygon class="st4" points="292,457.9 312.1,497.6 265.1,515.3 					"/>
					<polygon class="st4" points="225.5,473.7 265.1,515.3 208.1,520.6 					"/>
					<polygon class="st4" points="312.1,497.6 292,457.9 340,473.8 					"/>
					<g>
						<path class="st2" d="M361,430.9c0,0.9-0.7,1.7-1.6,1.7c-0.9,0-1.7-0.7-1.7-1.7c0-0.9,0.7-1.7,1.7-1.7
							C360.3,429.3,361,430,361,430.9z"/>
						<circle class="st3" cx="292" cy="457.9" r="2"/>
						<circle class="st3" cx="306" cy="421.3" r="2"/>
						<path class="st3" d="M361.4,430.9c0,1.1-0.9,2-2,2c-1.1,0-2-0.9-2-2c0-1.1,0.9-2,2-2C360.5,428.9,361.4,429.8,361.4,430.9z"/>
						<ellipse class="st3" cx="340" cy="473.8" rx="2" ry="2"/>
					</g>
				</g>
				<g>
					<polygon class="st4" points="381,464.5 359.4,430.9 409.4,412.8 					"/>
					<polygon class="st4" points="409.4,412.8 432.9,473.2 381,464.5 					"/>
					<polygon class="st4" points="359.4,430.9 381,464.5 340,473.8 					"/>
					<polygon class="st4" points="432.9,473.2 409.4,412.8 456.1,421.3 					"/>
					<polygon class="st4" points="356,507.8 340,473.8 381,464.5 					"/>
					<polygon class="st4" points="381,464.5 407.3,516.7 356,507.8 					"/>
					<polygon class="st4" points="340,473.8 356,507.8 312.1,497.6 					"/>
					<polygon class="st4" points="407.3,516.7 381,464.5 432.9,473.2 					"/>
					<g>
						<path class="st2" d="M457.7,421.3c0,0.9-0.7,1.6-1.6,1.6c-0.9,0-1.7-0.7-1.7-1.6c0-0.9,0.7-1.6,1.7-1.6
							C457,419.6,457.7,420.4,457.7,421.3z"/>
						<ellipse class="st3" cx="381" cy="464.5" rx="2" ry="2"/>
						<ellipse class="st3" cx="409.4" cy="412.8" rx="2" ry="2"/>
						<path class="st3" d="M458,421.3c0,1.1-0.9,2-2,2c-1.1,0-2-0.9-2-2c0-1.1,0.9-2,2-2C457.2,419.3,458,420.2,458,421.3z"/>
						<circle class="st3" cx="432.9" cy="473.2" r="2"/>
					</g>
				</g>
				<g>
					<polygon class="st4" points="481.1,464.5 456.1,421.3 506.1,421.3 					"/>
					<polygon class="st4" points="506.1,421.3 531.1,464.5 481.1,464.5 					"/>
					<polygon class="st4" points="456.1,421.3 481.1,464.5 432.9,473.2 					"/>
					<polygon class="st4" points="531.1,464.5 506.1,421.3 556.1,421.3 					"/>
					<polygon class="st4" points="456.1,507.8 432.9,473.2 481.1,464.5 					"/>
					<polygon class="st4" points="481.1,464.5 506.1,507.8 456.1,507.8 					"/>
					<polygon class="st4" points="432.9,473.2 456.1,507.8 407.3,516.7 					"/>
					<polygon class="st4" points="506.1,507.8 481.1,464.5 531.1,464.5 					"/>
					<g>
						<path class="st2" d="M557.8,421.3c0,0.9-0.7,1.6-1.6,1.6c-0.9,0-1.7-0.7-1.7-1.6c0-0.9,0.7-1.6,1.7-1.6
							C557,419.6,557.8,420.4,557.8,421.3z"/>
						<ellipse class="st3" cx="481.1" cy="464.5" rx="2" ry="2"/>
						<ellipse class="st3" cx="506.1" cy="421.3" rx="2" ry="2"/>
						<ellipse class="st3" cx="556.1" cy="421.3" rx="2" ry="2"/>
						<ellipse class="st3" cx="531.1" cy="464.5" rx="2" ry="2"/>
					</g>
				</g>
				<g>
					<polygon class="st4" points="581.1,464.5 556.1,421.3 606.1,421.3 					"/>
					<polygon class="st4" points="556.1,421.3 581.1,464.5 531.1,464.5 					"/>
					<polygon class="st4" points="556.1,507.8 531.1,464.5 581.1,464.5 					"/>
					<polygon class="st4" points="606.1,507.8 581.1,464.5 631.2,464.5 					"/>
					<polygon class="st4" points="581.1,464.5 606.1,507.8 556.1,507.8 					"/>
					<polygon class="st4" points="531.1,464.5 556.1,507.8 506.1,507.8 					"/>
					<g>
						<ellipse class="st3" cx="581.1" cy="464.5" rx="2" ry="2"/>
						<ellipse class="st3" cx="606.1" cy="421.3" rx="2" ry="2"/>
					</g>
				</g>
				<g>
					<g>
						<path class="st2" d="M157.5,507.8c0,0.9-0.7,1.7-1.6,1.7c-0.9,0-1.7-0.7-1.7-1.7c0-0.9,0.7-1.6,1.7-1.6
							C156.8,506.2,157.5,506.9,157.5,507.8z"/>
						<path class="st3" d="M157.9,507.8c0,1.1-0.9,2-2,2c-1.1,0-2-0.9-2-2c0-1.1,0.9-2,2-2C157,505.8,157.9,506.7,157.9,507.8z"/>
					</g>
				</g>
				<g>
					<polygon class="st4" points="180.9,551.1 155.9,507.8 208.1,520.6 					"/>
					<polygon class="st4" points="208.1,520.6 244.1,567.9 180.9,551.1 					"/>
					<polygon class="st4" points="244.1,567.9 208.1,520.6 265.1,515.3 					"/>
					<polygon class="st4" points="180.9,551.1 212,607 155.9,594.4 					"/>
					<polygon class="st4" points="212,607 180.9,551.1 244.1,567.9 					"/>
					<g>
						<circle class="st2" cx="265.1" cy="515.3" r="1.6"/>
						<ellipse class="st3" cx="180.9" cy="551.1" rx="2" ry="2"/>
						<ellipse class="st3" cx="208.1" cy="520.6" rx="2" ry="2"/>
						<ellipse class="st3" cx="265.1" cy="515.3" rx="2" ry="2"/>
						<ellipse class="st3" cx="244.1" cy="567.9" rx="2" ry="2"/>
					</g>
				</g>
				<g>
					<polygon class="st4" points="294.3,552.8 265.1,515.3 312.1,497.6 					"/>
					<polygon class="st4" points="312.1,497.6 331.5,537.1 294.3,552.8 					"/>
					<polygon class="st4" points="265.1,515.3 294.3,552.8 244.1,567.9 					"/>
					<polygon class="st4" points="331.5,537.1 312.1,497.6 356,507.8 					"/>
					<polygon class="st4" points="263.1,605.9 244.1,567.9 294.3,552.8 					"/>
					<polygon class="st4" points="294.3,552.8 313.1,594.9 263.1,605.9 					"/>
					<polygon class="st4" points="244.1,567.9 263.1,605.9 212,607 					"/>
					<polygon class="st4" points="313.1,594.9 294.3,552.8 331.5,537.1 					"/>
					<g>
						<path class="st2" d="M357.7,507.8c0,0.9-0.7,1.7-1.6,1.7c-0.9,0-1.7-0.7-1.7-1.7c0-0.9,0.7-1.6,1.7-1.6
							C356.9,506.2,357.7,506.9,357.7,507.8z"/>
						<ellipse class="st3" cx="294.3" cy="552.8" rx="2" ry="2"/>
						<circle class="st3" cx="312.1" cy="497.6" r="2"/>
						<path class="st3" d="M358,507.8c0,1.1-0.9,2-2,2c-1.1,0-2-0.9-2-2c0-1.1,0.9-2,2-2C357.1,505.8,358,506.7,358,507.8z"/>
						<ellipse class="st3" cx="331.5" cy="537.1" rx="2" ry="2"/>
					</g>
				</g>
				<g>
					<polygon class="st4" points="381,551.1 356,507.8 407.3,516.7 					"/>
					<polygon class="st4" points="407.3,516.7 436.1,556.3 381,551.1 					"/>
					<polygon class="st4" points="356,507.8 381,551.1 331.4,537.1 					"/>
					<polygon class="st4" points="436.1,556.3 407.3,516.7 456.1,507.8 					"/>
					<polygon class="st4" points="363.1,605 331.5,537.1 381,551.1 					"/>
					<polygon class="st4" points="381,551.1 406.7,594.4 363.1,605 					"/>
					<polygon class="st4" points="331.5,537.1 363.1,605 313.1,594.9 					"/>
					<polygon class="st4" points="406.7,594.4 381,551.1 436.1,556.3 					"/>
					<g>
						<path class="st2" d="M457.7,507.8c0,0.9-0.7,1.7-1.6,1.7c-0.9,0-1.7-0.7-1.7-1.7c0-0.9,0.7-1.6,1.7-1.6
							C457,506.2,457.7,506.9,457.7,507.8z"/>
						<ellipse class="st3" cx="381" cy="551.1" rx="2" ry="2"/>
						<ellipse class="st3" cx="407.3" cy="516.7" rx="2" ry="2"/>
						<path class="st3" d="M458,507.8c0,1.1-0.9,2-2,2c-1.1,0-2-0.9-2-2c0-1.1,0.9-2,2-2C457.2,505.8,458,506.7,458,507.8z"/>
						<ellipse class="st3" cx="436.1" cy="556.3" rx="2" ry="2"/>
					</g>
				</g>
				<g>
					<polygon class="st4" points="481.1,551.1 456.1,507.8 506.1,507.8 					"/>
					<polygon class="st4" points="506.1,507.8 531.1,551.1 481.1,551.1 					"/>
					<polygon class="st4" points="456.1,507.8 481.1,551.1 436.1,556.3 					"/>
					<polygon class="st4" points="531.1,551.1 506.1,507.8 556.1,507.8 					"/>
					<polygon class="st4" points="457.1,601.3 436.1,556.3 481.1,551.1 					"/>
					<polygon class="st4" points="481.1,551.1 505.4,594.4 457.1,601.3 					"/>
					<polygon class="st4" points="436.1,556.3 457.1,601.3 406.7,594.4 					"/>
					<polygon class="st4" points="505.4,594.4 481.1,551.1 531.1,551.1 					"/>
					<g>
						<path class="st2" d="M557.8,507.8c0,0.9-0.7,1.7-1.6,1.7c-0.9,0-1.7-0.7-1.7-1.7c0-0.9,0.7-1.6,1.7-1.6
							C557,506.2,557.8,506.9,557.8,507.8z"/>
						<ellipse class="st3" cx="481.1" cy="551.1" rx="2" ry="2"/>
						<ellipse class="st3" cx="506.1" cy="507.8" rx="2" ry="2"/>
						<ellipse class="st3" cx="556.1" cy="507.8" rx="2" ry="2"/>
						<circle class="st3" cx="531.1" cy="551.1" r="2"/>
					</g>
				</g>
				<g>
					<polygon class="st4" points="581.1,551.1 556.1,507.8 606.1,507.8 					"/>
					<polygon class="st4" points="556.1,507.8 581.1,551.1 531.1,551.1 					"/>
					<polygon class="st4" points="556.1,594.4 531.1,551.1 581.1,551.1 					"/>
					<polygon class="st4" points="606.1,594.4 581.1,551.1 631.2,551.1 					"/>
					<polygon class="st4" points="581.1,551.1 606.1,594.4 556.1,594.4 					"/>
					<polygon class="st4" points="531.1,551.1 556.1,594.4 505.4,594.4 					"/>
					<g>
						<ellipse class="st3" cx="581.1" cy="551.1" rx="2" ry="2"/>
						<ellipse class="st3" cx="606.1" cy="507.8" rx="2" ry="2"/>
					</g>
				</g>
				<g>
					<g>
						<path class="st2" d="M157.5,594.4c0,0.9-0.7,1.7-1.6,1.7c-0.9,0-1.7-0.7-1.7-1.7c0-0.9,0.7-1.7,1.7-1.7
							C156.8,592.7,157.5,593.5,157.5,594.4z"/>
						<path class="st3" d="M157.9,594.4c0,1.1-0.9,2-2,2c-1.1,0-2-0.9-2-2c0-1.1,0.9-2,2-2C157,592.4,157.9,593.3,157.9,594.4z"/>
						<ellipse class="st3" cx="125.3" cy="556.3" rx="2" ry="2"/>
					</g>
				</g>
				<g>
					<polygon class="st4" points="181.7,650.9 155.9,594.4 212,607 					"/>
					<polygon class="st4" points="212,607 234.1,639.9 181.7,650.9 					"/>
					<polygon class="st4" points="234.1,639.9 212,607 263.1,605.9 					"/>
					<polygon class="st4" points="181.7,650.9 205.9,680.9 155.9,680.9 					"/>
					<polygon class="st4" points="205.9,680.9 181.7,650.9 234.1,639.9 					"/>
					<g>
						<path class="st2" d="M264.7,605.9c0,0.9-0.7,1.7-1.6,1.7c-0.9,0-1.7-0.7-1.7-1.7c0-0.9,0.7-1.6,1.7-1.6
							C264,604.3,264.7,605,264.7,605.9z"/>
						<ellipse class="st3" cx="181.7" cy="650.9" rx="2" ry="2"/>
						<ellipse class="st3" cx="212" cy="607" rx="2" ry="2"/>
						<path class="st3" d="M265.1,605.9c0,1.1-0.9,2-2,2c-1.1,0-2-0.9-2-2c0-1.1,0.9-2,2-2C264.2,603.9,265.1,604.8,265.1,605.9z"/>
						<circle class="st3" cx="234.1" cy="639.9" r="2"/>
					</g>
				</g>
				<g>
					<polygon class="st4" points="285.1,649.9 263.1,605.9 313.1,594.9 					"/>
					<polygon class="st4" points="313.1,594.9 338,636.9 285.1,649.9 					"/>
					<polygon class="st4" points="263.1,605.9 285.1,649.9 234.1,639.9 					"/>
					<polygon class="st4" points="338,636.9 313.1,594.9 363.1,605 					"/>
					<polygon class="st4" points="244.5,687 234.1,639.9 285.1,649.9 					"/>
					<polygon class="st4" points="285.1,649.9 311,681.9 244.5,687 					"/>
					<polygon class="st4" points="234.1,639.9 244.5,687 205.9,680.9 					"/>
					<polygon class="st4" points="311,681.9 285.1,649.9 338,636.9 					"/>
					<g>
						<path class="st2" d="M364.7,605c0,0.9-0.7,1.7-1.6,1.7c-0.9,0-1.7-0.7-1.7-1.7c0-0.9,0.7-1.6,1.7-1.6
							C364,603.4,364.7,604.1,364.7,605z"/>
						<circle class="st3" cx="285.1" cy="649.9" r="2"/>
						<circle class="st3" cx="313.1" cy="594.9" r="2"/>
						<path class="st3" d="M365.1,605c0,1.1-0.9,2-2,2c-1.1,0-2-0.9-2-2c0-1.1,0.9-2,2-2C364.2,603,365.1,603.9,365.1,605z"/>
						<ellipse class="st3" cx="338" cy="636.9" rx="2" ry="2"/>
					</g>
				</g>
				<g>
					<polygon class="st4" points="388.1,647.9 363.1,605 406.7,594.4 					"/>
					<polygon class="st4" points="406.7,594.4 437.1,631.9 388.1,647.9 					"/>
					<polygon class="st4" points="363.1,605 388.1,647.9 338,636.9 					"/>
					<polygon class="st4" points="437.1,631.9 406.7,594.4 457.1,601.3 					"/>
					<polygon class="st4" points="363.6,685.4 338,636.9 388.1,647.9 					"/>
					<polygon class="st4" points="388.1,647.9 415.5,681 363.6,685.4 					"/>
					<polygon class="st4" points="338,636.9 363.6,685.4 311,681.9 					"/>
					<polygon class="st4" points="415.5,681 388.1,647.9 437.1,631.9 					"/>
					<g>
						<path class="st2" d="M458.7,601.3c0,0.9-0.7,1.6-1.6,1.6c-0.9,0-1.7-0.7-1.7-1.6c0-0.9,0.7-1.7,1.7-1.7
							C458,599.6,458.7,600.3,458.7,601.3z"/>
						<ellipse class="st3" cx="388.1" cy="647.9" rx="2" ry="2"/>
						<ellipse class="st3" cx="406.7" cy="594.4" rx="2" ry="2"/>
						<ellipse class="st3" cx="457.1" cy="601.3" rx="2" ry="2"/>
						<ellipse class="st3" cx="437.1" cy="631.9" rx="2" ry="2"/>
					</g>
				</g>
				<g>
					<polygon class="st4" points="484,637.6 457.1,601.3 505.4,594.4 					"/>
					<polygon class="st4" points="505.4,594.4 531.1,637.7 484,637.6 					"/>
					<polygon class="st4" points="457.1,601.3 484,637.6 437.1,631.9 					"/>
					<polygon class="st4" points="531.1,637.7 505.4,594.4 556.1,594.4 					"/>
					<polygon class="st4" points="460.2,680.9 437.1,631.9 484,637.6 					"/>
					<polygon class="st4" points="484,637.6 506.1,680.9 460.2,680.9 					"/>
					<polygon class="st4" points="437.1,631.9 460.2,680.9 415.5,681 					"/>
					<polygon class="st4" points="506.1,680.9 484,637.6 531.1,637.7 					"/>
					<g>
						<path class="st2" d="M557.8,594.4c0,0.9-0.7,1.7-1.6,1.7c-0.9,0-1.7-0.7-1.7-1.7c0-0.9,0.7-1.7,1.7-1.7
							C557,592.7,557.8,593.5,557.8,594.4z"/>
						<ellipse class="st3" cx="484" cy="637.6" rx="2" ry="2"/>
						<ellipse class="st3" cx="505.4" cy="594.4" rx="2" ry="2"/>
						<ellipse class="st3" cx="556.1" cy="594.4" rx="2" ry="2"/>
						<circle class="st3" cx="531.1" cy="637.7" r="2"/>
					</g>
				</g>
				<g>
					<polygon class="st4" points="581.1,637.7 556.1,594.4 606.1,594.4 					"/>
					<polygon class="st4" points="556.1,594.4 581.1,637.7 531.1,637.7 					"/>
					<polygon class="st4" points="556.1,680.9 531.1,637.7 581.1,637.7 					"/>
					<polygon class="st4" points="606.1,680.9 581.1,637.7 631.2,637.7 					"/>
					<polygon class="st4" points="581.1,637.7 606.1,680.9 556.1,680.9 					"/>
					<polygon class="st4" points="531.1,637.7 556.1,680.9 506.1,680.9 					"/>
					<g>
						<ellipse class="st3" cx="581.1" cy="637.7" rx="2" ry="2"/>
						<ellipse class="st3" cx="606.1" cy="594.4" rx="2" ry="2"/>
					</g>
				</g>
				<g>
					<g>
						<path class="st2" d="M157.5,680.9c0,0.9-0.7,1.7-1.6,1.7c-0.9,0-1.7-0.7-1.7-1.7c0-0.9,0.7-1.6,1.7-1.6
							C156.8,679.3,157.5,680,157.5,680.9z"/>
						<path class="st3" d="M157.9,680.9c0,1.1-0.9,2-2,2c-1.1,0-2-0.9-2-2c0-1.1,0.9-2,2-2C157,679,157.9,679.9,157.9,680.9z"/>
						<path class="st3" d="M100,765.6c0,1.1-0.9,2-2,2c-1.1,0-2-0.9-2-2c0-1.1,0.9-2,2-2C99.1,763.6,100,764.5,100,765.6z"/>
					</g>
				</g>
				<g>
					<polygon class="st4" points="180.9,724.2 155.9,680.9 205.9,680.9 					"/>
					<polygon class="st4" points="205.9,680.9 231.7,731.2 180.9,724.2 					"/>
					<polygon class="st4" points="155.9,680.9 180.9,724.2 130.9,724.2 					"/>
					<polygon class="st4" points="231.7,731.2 205.9,680.9 244.5,687 					"/>
					<polygon class="st4" points="156.8,759 130.9,724.2 180.9,724.2 					"/>
					<polygon class="st4" points="180.9,724.2 201.2,778.3 156.8,759 					"/>
					<polygon class="st4" points="201.2,778.3 180.9,724.2 231.7,731.2 					"/>
					<g>
						<path class="st2" d="M246.1,687c0,0.9-0.7,1.7-1.6,1.7c-0.9,0-1.7-0.7-1.7-1.7c0-0.9,0.7-1.6,1.7-1.6
							C245.4,685.4,246.1,686.1,246.1,687z"/>
						<ellipse class="st3" cx="180.9" cy="724.2" rx="2" ry="2"/>
						<circle class="st3" cx="130.9" cy="724.2" r="2"/>
						<ellipse class="st3" cx="205.9" cy="680.9" rx="2" ry="2"/>
						<path class="st3" d="M246.5,687c0,1.1-0.9,2-2,2c-1.1,0-2-0.9-2-2s0.9-2,2-2C245.6,685,246.5,685.9,246.5,687z"/>
						<ellipse class="st3" cx="231.7" cy="731.2" rx="2" ry="2"/>
					</g>
				</g>
				<g>
					<polygon class="st4" points="281,724.2 244.5,687 311,681.9 					"/>
					<polygon class="st4" points="311,681.9 331,724.2 281,724.2 					"/>
					<polygon class="st4" points="244.5,687 281,724.2 231.7,731.2 					"/>
					<polygon class="st4" points="331,724.2 311,681.9 363.6,685.4 					"/>
					<polygon class="st4" points="254.6,756.2 231.7,731.2 281,724.2 					"/>
					<polygon class="st4" points="281,724.2 297,773 254.6,756.2 					"/>
					<polygon class="st4" points="231.7,731.2 254.6,756.2 201.2,778.3 					"/>
					<polygon class="st4" points="297,773 281,724.2 331,724.2 					"/>
					<g>
						<ellipse class="st2" cx="363.6" cy="685.4" rx="1.6" ry="1.6"/>
						<ellipse class="st3" cx="281" cy="724.2" rx="2" ry="2"/>
						<circle class="st3" cx="311" cy="681.9" r="2"/>
						<ellipse class="st3" cx="363.6" cy="685.4" rx="2" ry="2"/>
						<ellipse class="st3" cx="331" cy="724.2" rx="2" ry="2"/>
					</g>
				</g>
				<g>
					<polygon class="st4" points="384.3,729.3 363.6,685.4 415.5,681 					"/>
					<polygon class="st4" points="415.5,681 437.2,724.2 384.3,729.3 					"/>
					<polygon class="st4" points="363.6,685.4 384.3,729.3 331,724.2 					"/>
					<polygon class="st4" points="437.2,724.2 415.5,681 460.3,680.9 					"/>
					<polygon class="st4" points="349,764.5 331,724.2 384.3,729.3 					"/>
					<polygon class="st4" points="384.3,729.3 406,767.5 349,764.5 					"/>
					<polygon class="st4" points="331,724.2 349,764.5 297,773 					"/>
					<polygon class="st4" points="406,767.5 384.3,729.3 437.2,724.2 					"/>
					<g>
						<ellipse class="st2" cx="460.3" cy="681" rx="1.6" ry="1.7"/>
						<ellipse class="st3" cx="384.3" cy="729.3" rx="2" ry="2"/>
						<ellipse class="st3" cx="415.5" cy="681" rx="2" ry="2"/>
						<path class="st3" d="M462.2,680.9c0,1.1-0.9,2-2,2c-1.1,0-2-0.9-2-2c0-1.1,0.9-2,2-2C461.3,679,462.2,679.9,462.2,680.9z"/>
						<ellipse class="st3" cx="437.2" cy="724.2" rx="2" ry="2"/>
					</g>
				</g>
				<g>
					<polygon class="st4" points="481.1,724.2 460.2,680.9 506.1,680.9 					"/>
					<polygon class="st4" points="506.1,680.9 531.1,724.2 481.1,724.2 					"/>
					<polygon class="st4" points="460.2,680.9 481.1,724.2 437.2,724.2 					"/>
					<polygon class="st4" points="531.1,724.2 506.1,680.9 556.1,680.9 					"/>
					<polygon class="st4" points="456.1,767.5 437.2,724.2 481.1,724.2 					"/>
					<polygon class="st4" points="481.1,724.2 506.1,767.5 456.1,767.5 					"/>
					<polygon class="st4" points="437.2,724.2 456.1,767.5 406,767.5 					"/>
					<polygon class="st4" points="506.1,767.5 481.1,724.2 531.1,724.2 					"/>
					<g>
						<path class="st2" d="M557.8,680.9c0,0.9-0.7,1.7-1.6,1.7c-0.9,0-1.7-0.7-1.7-1.7c0-0.9,0.7-1.6,1.7-1.6
							C557,679.3,557.8,680,557.8,680.9z"/>
						<ellipse class="st3" cx="481.1" cy="724.2" rx="2" ry="2"/>
						<ellipse class="st3" cx="506.1" cy="680.9" rx="2" ry="2"/>
						<ellipse class="st3" cx="556.1" cy="680.9" rx="2" ry="2"/>
						<circle class="st3" cx="531.1" cy="724.2" r="2"/>
					</g>
				</g>
				<g>
					<polygon class="st4" points="581.1,724.2 556.1,680.9 606.1,680.9 					"/>
					<polygon class="st4" points="556.1,680.9 581.1,724.2 531.1,724.2 					"/>
					<polygon class="st4" points="556.1,767.5 531.1,724.2 581.1,724.2 					"/>
					<polygon class="st4" points="606.1,767.5 581.1,724.2 631.2,724.2 					"/>
					<polygon class="st4" points="581.1,724.2 606.1,767.5 556.1,767.5 					"/>
					<polygon class="st4" points="531.1,724.2 556.1,767.5 506.1,767.5 					"/>
					<g>
						<ellipse class="st3" cx="581.1" cy="724.2" rx="2" ry="2"/>
						<ellipse class="st3" cx="606.1" cy="680.9" rx="2" ry="2"/>
					</g>
				</g>
				<g>
					<g>
						<circle class="st2" cx="156.8" cy="759" r="1.6"/>
						<path class="st3" d="M158.8,759c0,1.1-0.9,2-2,2c-1.1,0-2-0.9-2-2c0-1.1,0.9-2,2-2C157.9,757,158.8,757.9,158.8,759z"/>
						<path class="st3" d="M132.8,810.8c0,1.1-0.9,2-2,2c-1.1,0-2-0.9-2-2c0-1.1,0.9-2,2-2C132,808.8,132.8,809.7,132.8,810.8z"/>
					</g>
				</g>
				<g>
					<polygon class="st4" points="180.9,810.8 156.8,759 201.2,778.3 					"/>
					<polygon class="st4" points="201.2,778.3 233.1,820.7 180.9,810.8 					"/>
					<polygon class="st4" points="156.8,759 180.9,810.8 130.9,810.8 					"/>
					<polygon class="st4" points="233.1,820.7 201.2,778.3 254.7,756.2 					"/>
					<polygon class="st4" points="155.9,854.1 130.9,810.8 180.9,810.8 					"/>
					<polygon class="st4" points="180.9,810.8 205.9,854.1 155.9,854.1 					"/>
					<polygon class="st4" points="205.9,854.1 180.9,810.8 233.1,820.7 					"/>
					<g>
						<path class="st2" d="M256.3,756.2c0,0.9-0.7,1.6-1.6,1.6c-0.9,0-1.7-0.7-1.7-1.6c0-0.9,0.7-1.7,1.7-1.7
							C255.6,754.5,256.3,755.3,256.3,756.2z"/>
						<ellipse class="st3" cx="180.9" cy="810.8" rx="2" ry="2"/>
						<ellipse class="st3" cx="201.2" cy="778.3" rx="2" ry="2"/>
						<path class="st3" d="M256.6,756.2c0,1.1-0.9,2-2,2c-1.1,0-2-0.9-2-2c0-1.1,0.9-2,2-2C255.7,754.2,256.6,755.1,256.6,756.2z"/>
						<circle class="st3" cx="233.1" cy="820.7" r="2"/>
					</g>
				</g>
				<g>
					<polygon class="st4" points="281,810.8 254.6,756.2 297,773 					"/>
					<polygon class="st4" points="297,773 331.5,818 281,810.8 					"/>
					<polygon class="st4" points="254.6,756.2 281,810.8 233.1,820.7 					"/>
					<polygon class="st4" points="331.5,818 297,773 349.1,764.5 					"/>
					<polygon class="st4" points="255.9,854.1 233.1,820.7 281,810.8 					"/>
					<polygon class="st4" points="281,810.8 306,854.1 255.9,854.1 					"/>
					<polygon class="st4" points="233.1,820.7 255.9,854.1 205.9,854.1 					"/>
					<polygon class="st4" points="306,854.1 281,810.8 331.5,818 					"/>
					<g>
						<path class="st2" d="M350.7,764.5c0,0.9-0.7,1.6-1.6,1.6c-0.9,0-1.7-0.7-1.7-1.6c0-0.9,0.7-1.6,1.7-1.6
							C350,762.9,350.7,763.6,350.7,764.5z"/>
						<ellipse class="st3" cx="281" cy="810.8" rx="2" ry="2"/>
						<circle class="st3" cx="297" cy="772.9" r="2"/>
						<ellipse class="st3" cx="349.1" cy="764.5" rx="2" ry="2"/>
						<ellipse class="st3" cx="331.5" cy="818" rx="2" ry="2"/>
					</g>
				</g>
				<g>
					<polygon class="st4" points="388,807.5 349,764.5 406,767.5 					"/>
					<polygon class="st4" points="406,767.5 431,810.8 388,807.5 					"/>
					<polygon class="st4" points="349,764.5 388,807.5 331.4,818 					"/>
					<polygon class="st4" points="431,810.8 406,767.5 456.1,767.5 					"/>
					<polygon class="st4" points="356,854.1 331.5,818 388,807.5 					"/>
					<polygon class="st4" points="388,807.5 406,854.1 356,854.1 					"/>
					<polygon class="st4" points="331.5,818 356,854.1 306,854.1 					"/>
					<polygon class="st4" points="406,854.1 388,807.5 431,810.8 					"/>
					<g>
						<path class="st2" d="M457.7,767.5c0,0.9-0.7,1.7-1.6,1.7c-0.9,0-1.7-0.7-1.7-1.7c0-0.9,0.7-1.6,1.7-1.6
							C457,765.9,457.7,766.6,457.7,767.5z"/>
						<ellipse class="st3" cx="388" cy="807.6" rx="2" ry="2"/>
						<ellipse class="st3" cx="406" cy="767.5" rx="2" ry="2"/>
						<path class="st3" d="M458,767.5c0,1.1-0.9,2-2,2c-1.1,0-2-0.9-2-2c0-1.1,0.9-2,2-2C457.2,765.5,458,766.4,458,767.5z"/>
						<ellipse class="st3" cx="431" cy="810.8" rx="2" ry="2"/>
					</g>
				</g>
				<g>
					<polygon class="st4" points="481.1,810.8 456.1,767.5 506.1,767.5 					"/>
					<polygon class="st4" points="506.1,767.5 531.1,810.8 481.1,810.8 					"/>
					<polygon class="st4" points="456.1,767.5 481.1,810.8 431,810.8 					"/>
					<polygon class="st4" points="531.1,810.8 506.1,767.5 556.1,767.5 					"/>
					<polygon class="st4" points="456.1,854.1 431,810.8 481.1,810.8 					"/>
					<polygon class="st4" points="481.1,810.8 506.1,854.1 456.1,854.1 					"/>
					<polygon class="st4" points="431,810.8 456.1,854.1 406,854.1 					"/>
					<polygon class="st4" points="506.1,854.1 481.1,810.8 531.1,810.8 					"/>
					<g>
						<path class="st2" d="M557.8,767.5c0,0.9-0.7,1.7-1.6,1.7c-0.9,0-1.7-0.7-1.7-1.7c0-0.9,0.7-1.6,1.7-1.6
							C557,765.9,557.8,766.6,557.8,767.5z"/>
						<ellipse class="st3" cx="481.1" cy="810.8" rx="2" ry="2"/>
						<ellipse class="st3" cx="506.1" cy="767.5" rx="2" ry="2"/>
						<ellipse class="st3" cx="556.1" cy="767.5" rx="2" ry="2"/>
						<circle class="st3" cx="531.1" cy="810.8" r="2"/>
					</g>
				</g>
				<g>
					<polygon class="st4" points="581.1,810.8 556.1,767.5 606.1,767.5 					"/>
					<polygon class="st4" points="556.1,767.5 581.1,810.8 531.1,810.8 					"/>
					<polygon class="st4" points="556.1,854.1 531.1,810.8 581.1,810.8 					"/>
					<polygon class="st4" points="606.1,854.1 581.1,810.8 631.2,810.8 					"/>
					<polygon class="st4" points="581.1,810.8 606.1,854.1 556.1,854.1 					"/>
					<polygon class="st4" points="531.1,810.8 556.1,854.1 506.1,854.1 					"/>
					<g>
						<ellipse class="st3" cx="581.1" cy="810.8" rx="2" ry="2"/>
						<ellipse class="st3" cx="606.1" cy="767.5" rx="2" ry="2"/>
					</g>
				</g>
				<path class="st4" d="M-70.2,722.2c108.3-5.6,185.3-57.5,226.1-127.8"/>
				<path class="st4" d="M-81.3,503.8c44.9,54.6,176.3,124.5,263,147.1"/>
				<path class="st4" d="M-59.1,438.6c59.7,18.4,177,91.8,215,155.7"/>
				<path class="st4" d="M-70.2,614.4C-28.1,594,99,551.1,180.9,551.1"/>
				<path class="st4" d="M-73.4,629.3c173.1,0,207.9-84.2,229.3-121.5"/>
				<path class="st4" d="M-98.4,518.7c171.3,24.4,217.7-54.1,244.1-88"/>
				<path class="st4" d="M-59.1,650.9c112.5-23.3,157.8-11.4,215,30"/>
				<path class="st4" d="M-59.1,831.2c58.8,4.4,149.7-37.5,189.9-106.9"/>
				<path class="st4" d="M130.9,724.2c-36.7-49.4-94.6-109.7-214-141.5"/>
				<path class="st4" d="M-83.1,755.5c34.7,6.5,148.5,21.2,239.9,3.5"/>
				<path class="st4" d="M130.9,810.8C111,847.8,76,885.1,50.2,905"/>
				<path class="st4" d="M130.9,810.8C104.6,759,7.9,666.2-115.1,663.4"/>
				<path class="st4" d="M130.9,810.8c-84.4,0-176.1,109.5-176.1,109.5"/>
				<path class="st4" d="M-104.4,801.8c91.2-2.8,153.4-77.5,237.3-77.5"/>
				<path class="st3" d="M132.8,692.7"/>
				<path class="st4" d="M-73.4,482.5c32.4,8.8,120.2,25.3,229.3,25.3"/>
				<path class="st4" d="M155.9,507.8C127.2,456,14.2,358.4-65,342.1"/>
				<path class="st4" d="M-51.2,410.8c56,12.5,188.3,44.1,232.1,53.8"/>
				<path class="st4" d="M-85.5,559.3c116.6-32.9,145.8,35.1,241.3,35.1"/>
			</g>
		</g>
	</g>
</g>
</svg>
