<?xml version="1.0" encoding="utf-8"?>
<!-- Generator: Adobe Illustrator 20.0.0, SVG Export Plug-In . SVG Version: 6.00 Build 0)  -->
<svg version="1.1" id="Layer_1" xmlns="http://www.w3.org/2000/svg" xmlns:xlink="http://www.w3.org/1999/xlink" x="0px" y="0px"
	 viewBox="0 0 100 100" style="enable-background:new 0 0 100 100;" xml:space="preserve">
<style type="text/css">
	.st0{opacity:0.5;fill:#58595B;enable-background:new    ;}
	.st1{opacity:0.25;fill:none;stroke:#A7A9AC;stroke-width:2;stroke-linecap:round;stroke-miterlimit:10;enable-background:new    ;}
	.st2{opacity:0.2;fill:#D1D3D4;enable-background:new    ;}
	.st3{fill:none;stroke:#6D6E71;stroke-width:2.0636;stroke-miterlimit:10;}
	.st4{fill:#58595B;}
	.st5{fill:none;stroke:#6D6E71;stroke-width:2;stroke-linecap:round;stroke-miterlimit:10;}
	.st6{fill:none;stroke:#A7A9AC;stroke-width:2;stroke-linecap:round;stroke-miterlimit:10;}
	.st7{fill:none;stroke:#414042;stroke-width:2;stroke-linecap:round;stroke-miterlimit:10;}
	.st8{fill:none;stroke:#000000;stroke-width:2;stroke-linecap:round;stroke-miterlimit:10;}
	.st9{display:none;}
	.st10{display:inline;opacity:0.9;fill:#A6A8AB;}
	.st11{display:inline;opacity:0.1;fill:#767576;}
	.st12{display:inline;fill:none;stroke:#767576;stroke-width:1.95;stroke-miterlimit:10;}
	.st13{display:inline;fill:none;stroke:#767576;stroke-width:2.6;stroke-miterlimit:10;}
	.st14{display:inline;fill:none;stroke:#767576;stroke-width:13;stroke-linecap:round;stroke-linejoin:round;stroke-miterlimit:10;}
	.st15{display:inline;}
	.st16{fill:none;stroke:#767576;stroke-width:1.95;stroke-linecap:round;stroke-miterlimit:10;}
	.st17{display:inline;fill:none;stroke:#767576;stroke-width:1.95;stroke-linecap:round;stroke-miterlimit:10;}
	.st18{display:inline;opacity:0.5;fill:#D0D2D3;}
	.st19{display:inline;fill:#D0D2D3;stroke:#767576;stroke-width:1.3;stroke-miterlimit:10;}
	.st20{display:inline;fill:#FFFFFF;stroke:#767576;stroke-width:1.95;stroke-miterlimit:10;}
	.st21{display:inline;opacity:0.4;fill:#A6A8AB;}
	.st22{display:inline;opacity:0.3;fill:#A6A8AB;}
	.st23{display:inline;opacity:0.5;fill:#A6A8AB;}
	.st24{display:inline;opacity:0.6;fill:#A6A8AB;}
	.st25{display:inline;opacity:0.7;fill:#A6A8AB;}
	.st26{display:inline;opacity:0.8;fill:#A6A8AB;}
	.st27{display:inline;fill:#A6A8AB;}
	.st28{display:inline;opacity:0.2;fill:#A6A8AB;}
	.st29{fill:#767576;}
</style>
<g>
	<path class="st0" d="M85.8,25.9h-7c-1.5,0-2.7-1.2-2.7-2.7v-4.1c0-1.5,1.2-2.7,2.7-2.7h7c1.5,0,2.7,1.2,2.7,2.7v4.1
		C88.6,24.7,87.3,25.9,85.8,25.9z"/>
	<line class="st1" x1="86.8" y1="26.9" x2="86.8" y2="86.6"/>
	<line class="st1" x1="11.8" y1="25.9" x2="11.8" y2="85.6"/>
	<path class="st2" d="M88.4,26.2h-7c-1.5,0-2.7,0.8-2.7-0.7v-4.1c0-1.5,1.2-2.7,2.7-2.7h7c1.5,0,0.7,1.2,0.7,2.7v3.1
		C89.2,26,89.9,26.2,88.4,26.2z"/>
	<path class="st3" d="M84.4,87.5H14.7c-2.3,0-4.1-1.9-4.1-4.1V25.9v-5.4c0-2.3,1.9-4.1,4.1-4.1h69.7c2.3,0,4.1,1.9,4.1,4.1v62.8
		C88.6,85.6,86.7,87.5,84.4,87.5z"/>
	<line class="st3" x1="88.6" y1="25.9" x2="10.6" y2="25.9"/>
	<line class="st3" x1="76.1" y1="16.4" x2="76.1" y2="25.9"/>
	<circle class="st4" cx="17.5" cy="21.2" r="1.2"/>
	<circle class="st4" cx="21.5" cy="21.2" r="1.2"/>
	<circle class="st4" cx="25.5" cy="21.2" r="1.2"/>
	<line class="st5" x1="20.3" y1="33.9" x2="33.7" y2="33.9"/>
	<line class="st6" x1="38.3" y1="33.9" x2="46.7" y2="33.9"/>
	<line class="st5" x1="20.3" y1="38.9" x2="22.7" y2="38.9"/>
	<line class="st5" x1="27.3" y1="38.9" x2="35.7" y2="38.9"/>
	<line class="st5" x1="40.5" y1="38.9" x2="59" y2="38.9"/>
	<line class="st5" x1="63.2" y1="38.9" x2="67.7" y2="38.9"/>
	<line class="st6" x1="20.3" y1="43.9" x2="28.7" y2="43.9"/>
	<line class="st5" x1="33.3" y1="43.9" x2="46.7" y2="43.9"/>
	<line class="st5" x1="51" y1="43.9" x2="56.4" y2="43.9"/>
	<line class="st5" x1="20.3" y1="48.9" x2="22.7" y2="48.9"/>
	<line class="st5" x1="27.3" y1="48.9" x2="35.7" y2="48.9"/>
	<line class="st7" x1="40.5" y1="48.9" x2="42" y2="48.9"/>
	<line class="st5" x1="46.5" y1="48.9" x2="58" y2="48.9"/>
	<line class="st5" x1="62.2" y1="48.9" x2="77.7" y2="48.9"/>
	<line class="st5" x1="20.3" y1="61.9" x2="33.7" y2="61.9"/>
	<line class="st5" x1="38.3" y1="61.9" x2="46.7" y2="61.9"/>
	<line class="st5" x1="20.3" y1="66.9" x2="22.7" y2="66.9"/>
	<line class="st5" x1="27.3" y1="66.9" x2="35.7" y2="66.9"/>
	<line class="st5" x1="40.5" y1="66.9" x2="49" y2="66.9"/>
	<line class="st5" x1="54.2" y1="66.9" x2="67.7" y2="66.9"/>
	<line class="st6" x1="20.3" y1="71.9" x2="28.7" y2="71.9"/>
	<line class="st5" x1="33.3" y1="71.9" x2="46.7" y2="71.9"/>
	<line class="st5" x1="51" y1="71.9" x2="56.4" y2="71.9"/>
	<line class="st5" x1="20.3" y1="76.9" x2="22.7" y2="76.9"/>
	<line class="st5" x1="27.3" y1="76.9" x2="45.7" y2="76.9"/>
	<line class="st8" x1="51.5" y1="61.9" x2="53.9" y2="61.9"/>
	<line class="st5" x1="59" y1="61.9" x2="71.5" y2="61.9"/>
	<line class="st7" x1="61.5" y1="71.8" x2="74.9" y2="71.8"/>
</g>
<g class="st9">
	<circle class="st10" cx="73" cy="36.1" r="2.5"/>
	<path class="st11" d="M80.1,51.4c0,18.4-13.8-0.4-30.9-0.4s-30.9,18.9-30.9,0.4S32.1,18,49.2,18S80.1,33,80.1,51.4z"/>
	<path class="st12" d="M91.9,56.5c0.1,4.1,0,9.6-3.2,12.3c-2.7,2.2-6.7,1.2-9.7,0.5C73.8,68,68.8,66.1,63.5,65
		c-4.4-1-9-1.6-13.5-1.6c-10.4,0-20,3.6-30,6.2c-2.6,0.7-5.5,1.2-7.8-0.1c-1.6-0.9-2.7-2.6-3.3-4.4c-0.8-2.7-0.9-5.7-0.9-8.5
		c0-12.7,3.2-26.7,11.9-36.4c5.8-6.4,13.7-10.9,22.1-12.6C49.9,6,58.2,6.7,65.4,9.9c9.3,4.1,16.7,12.1,21,21.3
		c3.4,7.3,5.1,15.4,5.4,23.5C91.9,55.3,91.9,55.9,91.9,56.5z"/>
	<path class="st13" d="M50,49.5"/>
	<path class="st14" d="M18.3,56"/>
	<path class="st14" d="M84,56"/>
	<g class="st15">
		<path class="st16" d="M82.6,48.2c0.1,1.4,0.2,2.8,0.2,4.2c0,3.4-2.5,6.1-5.5,6.1s-5.5-2.7-5.5-6.1c0-13.6-10.1-24.7-22.4-24.7
			c-12.4,0-22.4,11.1-22.4,24.7c0,3.4-2.5,6.1-5.5,6.1s-5.5-2.7-5.5-6.1c0-2.7,0.3-5.3,0.7-7.8"/>
		<path class="st16" d="M78.6,34.5c1.3,2.5,2.3,5.3,3,8.2"/>
		<path class="st16" d="M76.9,31.6"/>
		<path class="st16" d="M65,19.8c4.8,2.8,8.9,6.8,11.9,11.7"/>
		<path class="st16" d="M41.3,16.6c2.5-0.7,5.2-1,7.9-1c4,0,7.9,0.8,11.5,2.2"/>
		<path class="st16" d="M27.7,24.2c2.7-2.5,5.7-4.5,9-6"/>
		<path class="st16" d="M17.5,40.7c1.5-5,4-9.5,7.2-13.3"/>
	</g>
	<line class="st17" x1="33.5" y1="20.7" x2="35.5" y2="23.7"/>
	<line class="st17" x1="51.1" y1="15.6" x2="51.1" y2="20.7"/>
	<line class="st17" x1="72.4" y1="25.7" x2="69.3" y2="28.8"/>
	<line class="st17" x1="80.9" y1="40.1" x2="77.4" y2="41.2"/>
	<circle class="st18" cx="49.3" cy="46.2" r="13.2"/>
	<path class="st19" d="M74.2,38.1l-25.6,9.3c-0.9,0.3-2-0.1-2.3-1.1v0c-0.3-0.9,0.1-2,1.1-2.3L73,34.7c0.9-0.3,2,0.1,2.3,1.1l0,0
		C75.6,36.7,75.1,37.8,74.2,38.1z"/>
	<circle class="st20" cx="49.4" cy="46.2" r="9.8"/>
	<circle class="st21" cx="26.2" cy="34.8" r="2.5"/>
	<circle class="st22" cx="22.3" cy="45.2" r="2.5"/>
	<circle class="st23" cx="32.7" cy="27" r="2.5"/>
	<circle class="st24" cx="43.1" cy="23.1" r="2.5"/>
	<circle class="st25" cx="54.8" cy="23.1" r="2.5"/>
	<circle class="st26" cx="65.2" cy="27" r="2.5"/>
	<circle class="st27" cx="76.9" cy="46.5" r="2.5"/>
	<line class="st17" x1="21.5" y1="34" x2="25.1" y2="35.8"/>
	<path class="st28" d="M49.8,46.1c3.3,0.3,5.7-1.1,7.5-3c-1.2-3.4-4.3-5.8-7.8-5.8c-4.7,0-8.4,4.1-8.4,9.1c0,0.4,0,0.7,0.1,1.1
		C42.7,46.5,45.4,45.7,49.8,46.1z"/>
	<path class="st12" d="M58.6,92.4H40.2c-5.7,0-10.4-4.7-10.4-10.4v0c0-5.7,4.7-10.4,10.4-10.4h18.4C64.3,71.6,69,76.3,69,82v0
		C69,87.8,64.3,92.4,58.6,92.4z"/>
	<g class="st15">
		<path class="st29" d="M42.6,81.8c0,0.6-0.1,1.2-0.2,1.8c-0.1,0.5-0.4,1-0.7,1.4c-0.3,0.4-0.7,0.7-1.2,0.9
			c-0.5,0.2-1.1,0.3-1.8,0.3c-0.2,0-0.5,0-0.7,0c-0.3,0-0.4-0.1-0.5-0.1v-1.5h0.1c0.1,0,0.2,0.1,0.4,0.2c0.2,0.1,0.4,0.1,0.7,0.1
			c0.2,0,0.5,0,0.7-0.1s0.4-0.2,0.6-0.3c0.2-0.1,0.3-0.3,0.4-0.6c0.1-0.2,0.2-0.5,0.2-0.8c-0.3,0.2-0.5,0.3-0.8,0.4
			c-0.2,0.1-0.5,0.1-0.9,0.1c-0.3,0-0.5,0-0.7-0.1s-0.5-0.2-0.7-0.3c-0.3-0.2-0.5-0.5-0.6-0.8c-0.2-0.3-0.2-0.7-0.2-1.2
			c0-0.4,0.1-0.8,0.2-1.1c0.1-0.3,0.3-0.6,0.6-0.9c0.2-0.2,0.5-0.4,0.9-0.6s0.8-0.2,1.2-0.2c0.4,0,0.8,0.1,1.2,0.2
			c0.3,0.1,0.6,0.3,0.9,0.6c0.3,0.3,0.5,0.7,0.6,1.1C42.6,80.6,42.6,81.1,42.6,81.8z M40.8,81.5c0-0.4,0-0.7-0.1-1
			c-0.1-0.3-0.2-0.5-0.3-0.6c-0.1-0.1-0.2-0.2-0.3-0.2c-0.1,0-0.2-0.1-0.4-0.1c-0.1,0-0.2,0-0.3,0.1c-0.1,0-0.2,0.1-0.3,0.2
			c-0.1,0.1-0.2,0.2-0.2,0.4c-0.1,0.2-0.1,0.4-0.1,0.6c0,0.2,0,0.4,0.1,0.6c0.1,0.2,0.1,0.3,0.3,0.4c0.1,0.1,0.2,0.2,0.4,0.2
			c0.1,0,0.3,0.1,0.5,0.1c0.1,0,0.3,0,0.4-0.1c0.2,0,0.3-0.1,0.4-0.1c0,0,0-0.1,0-0.2S40.8,81.6,40.8,81.5z"/>
		<path class="st29" d="M49.4,82.2c0,0.7-0.1,1.2-0.2,1.7c-0.1,0.5-0.3,0.9-0.5,1.2c-0.2,0.3-0.5,0.6-0.9,0.7
			c-0.4,0.2-0.8,0.3-1.4,0.3c-0.5,0-1-0.1-1.4-0.3c-0.4-0.2-0.7-0.4-0.9-0.8c-0.2-0.3-0.4-0.7-0.5-1.2s-0.2-1.1-0.2-1.7
			c0-0.7,0.1-1.2,0.2-1.7c0.1-0.5,0.3-0.9,0.5-1.2c0.2-0.3,0.5-0.6,0.9-0.7c0.4-0.2,0.8-0.2,1.3-0.2c0.5,0,1,0.1,1.4,0.3
			c0.4,0.2,0.7,0.4,0.9,0.8c0.2,0.3,0.4,0.7,0.5,1.2C49.3,81,49.4,81.6,49.4,82.2z M47.5,82.2c0-0.9-0.1-1.6-0.2-2s-0.4-0.6-0.8-0.6
			c-0.4,0-0.6,0.2-0.8,0.6s-0.2,1-0.2,2c0,0.9,0.1,1.6,0.2,2s0.4,0.6,0.8,0.6s0.6-0.2,0.8-0.6S47.5,83.1,47.5,82.2z"/>
		<path class="st29" d="M54.7,80.7c0,0.8-0.2,1.5-0.6,1.9c-0.4,0.4-0.9,0.6-1.6,0.6c-0.7,0-1.3-0.2-1.7-0.6c-0.4-0.4-0.6-1-0.6-1.9
			c0-0.8,0.2-1.4,0.6-1.9c0.4-0.4,0.9-0.6,1.6-0.6c0.7,0,1.3,0.2,1.6,0.6C54.5,79.3,54.7,79.9,54.7,80.7z M53.3,80.7
			c0-0.2,0-0.4,0-0.6s-0.1-0.3-0.1-0.4c-0.1-0.1-0.1-0.2-0.2-0.3c-0.1-0.1-0.2-0.1-0.4-0.1c-0.2,0-0.3,0-0.4,0.1s-0.2,0.1-0.2,0.3
			c-0.1,0.1-0.1,0.3-0.1,0.4c0,0.2,0,0.4,0,0.6c0,0.3,0,0.4,0,0.6c0,0.1,0.1,0.3,0.1,0.4C52,81.9,52,82,52.1,82
			c0.1,0.1,0.2,0.1,0.4,0.1c0.2,0,0.3,0,0.4-0.1c0.1-0.1,0.2-0.2,0.2-0.3c0-0.1,0.1-0.2,0.1-0.4C53.2,81.2,53.3,81,53.3,80.7z
			 M58.6,78.4l-4,7.6h-1.3l4-7.6H58.6z M61.7,83.7c0,0.8-0.2,1.5-0.6,1.9c-0.4,0.4-0.9,0.6-1.6,0.6c-0.7,0-1.3-0.2-1.7-0.6
			c-0.4-0.4-0.6-1-0.6-1.9c0-0.8,0.2-1.4,0.6-1.9c0.4-0.4,0.9-0.6,1.6-0.6c0.7,0,1.3,0.2,1.6,0.6C61.5,82.2,61.7,82.9,61.7,83.7z
			 M60.2,83.7c0-0.2,0-0.4,0-0.6c0-0.2-0.1-0.3-0.1-0.4c-0.1-0.1-0.1-0.2-0.2-0.3c-0.1-0.1-0.2-0.1-0.4-0.1c-0.2,0-0.3,0-0.4,0.1
			c-0.1,0.1-0.2,0.1-0.2,0.3c-0.1,0.1-0.1,0.3-0.1,0.4c0,0.2,0,0.4,0,0.6c0,0.3,0,0.4,0,0.6c0,0.1,0.1,0.3,0.1,0.4
			c0.1,0.1,0.1,0.2,0.2,0.3c0.1,0.1,0.2,0.1,0.4,0.1c0.2,0,0.3,0,0.4-0.1c0.1-0.1,0.2-0.2,0.2-0.3c0-0.1,0.1-0.2,0.1-0.4
			C60.2,84.1,60.2,83.9,60.2,83.7z"/>
	</g>
	<path class="st11" d="M62.7,92.2H36.2c-2.8,0-5.1-2.3-5.1-5.1v0c0-2.8,2.3-5.1,5.1-5.1h26.5c2.8,0,5.1,2.3,5.1,5.1v0
		C67.7,89.9,65.4,92.2,62.7,92.2z"/>
</g>
</svg>
