<?xml version="1.0" encoding="utf-8"?>
<!-- Generator: Adobe Illustrator 20.0.0, SVG Export Plug-In . SVG Version: 6.00 Build 0)  -->
<svg version="1.1" id="Layer_1" xmlns="http://www.w3.org/2000/svg" xmlns:xlink="http://www.w3.org/1999/xlink" x="0px" y="0px"
	 viewBox="0 0 500 500" style="enable-background:new 0 0 500 500;" xml:space="preserve">
<style type="text/css">
	.st0{fill:none;stroke:#FFFFFF;stroke-width:3;stroke-miterlimit:10;}
	.st1{fill:#FFFFFF;stroke:#FFFFFF;stroke-width:3;stroke-miterlimit:10;}
	.st2{fill:none;stroke:#FFFFFF;stroke-width:3;stroke-linecap:round;stroke-miterlimit:10;}
	.st3{fill:none;stroke:#FFFFFF;stroke-width:3;stroke-linecap:round;stroke-linejoin:round;stroke-miterlimit:10;}
	.st4{opacity:0.1;fill:#767576;stroke:#FFFFFF;stroke-width:3;stroke-miterlimit:10;}
</style>
<g>
	<path class="st0" d="M409.5,426c0-51.9-39.3-94.3-87.3-94.3H177.7c-48,0-87.3,42.4-87.3,94.3h153.8H409.5z"/>
	<line class="st0" x1="210.1" y1="331.6" x2="246.4" y2="352.7"/>
	<rect x="283.4" y="389.9" class="st1" width="44.5" height="13.1"/>
	<rect x="276.7" y="402.9" class="st0" width="58.4" height="22.2"/>
	<polyline class="st0" points="246.4,373.4 263.7,390.7 321.4,333 276.7,331.6 246.4,352.7 246.4,426 	"/>
	<polyline class="st0" points="246,373.4 228.7,390.7 171,333 209.9,331.6 246,352.7 246,426 	"/>
	<polyline class="st0" points="287.7,303.8 287.7,331.6 203.6,331.6 203.6,303.8 	"/>
	<path class="st0" d="M287.7,303.8"/>
	<path class="st0" d="M203.6,303.8"/>
	<path class="st0" d="M324.9,221.1"/>
	<path class="st0" d="M164.9,221.1"/>
	<path class="st0" d="M175,129.4c-5.6,0-10.1,4.5-10.1,10.1v81.7c0,53.4,35.8,96.6,80,96.6s80-43.3,80-96.6v-81.7
		c0-5.6-4.5-10.1-10.1-10.1H175z"/>
	<path class="st0" d="M152.1,165.1c-16.6,0-30.1,13.5-30.1,30.1c0,16.6,13.5,30.1,30.1,30.1V165.1z"/>
	<path class="st0" d="M336.6,165.1c16.6,0,30.1,13.5,30.1,30.1c0,16.6-13.5,30.1-30.1,30.1V165.1z"/>
	<path class="st0" d="M345.7,223.6c0,0,4.4,52-46.6,52h-23.4"/>
	<ellipse class="st1" cx="277.6" cy="275.2" rx="16.7" ry="10"/>
	<path class="st2" d="M244.8,276.5c-21.6,0-39.1-22.8-39.1-43.7h78.1V257"/>
	<path class="st0" d="M283.4,249"/>
	<path class="st2" d="M188.4,195.2c0,0,15-15.5,30.5,0"/>
	<path class="st2" d="M264.5,195.2c0,0,15-15.5,30.4,0"/>
	<path class="st0" d="M186.4,230.1"/>
	<path class="st3" d="M291.6,95.5"/>
	<path class="st0" d="M335.7,119.8"/>
	<path class="st3" d="M171,119.8c0,0,21.5-1.1,30.2-27.2c0,0,3.9,10.6,2.4,19.8c0,0,15.9-18.9,15.2-39.6c0,0,11.9,30.5,9.4,43.5
		c0,0,20.8-12.6,47.4-13c26.6-0.5,38.2-12.6,38.2-12.6s-3.9,16.4-8.2,19.8c0,0,17.9-1.7,19.3,9.3"/>
	<path class="st4" d="M169.4,129.4c0,0,21.5-1.3,30.2-32.7c0,0,3.9,12.8,2.4,23.8c0,0,15.9-22.6,15.2-47.6c0,0,11.9,36.6,9.4,52.2
		c0,0,20.8-15.1,47.4-15.7s38.2-15.1,38.2-15.1s-3.9,19.7-8.2,23.8c0,0,17.9-2,19.3,11.2"/>
	<rect x="276.7" y="402.9" class="st4" width="51.1" height="20.3"/>
</g>
</svg>
